<svg id="visual" viewBox="0 0 900 600" width="900" height="600" xmlns="http://www.w3.org/2000/svg" xmlns:xlink="http://www.w3.org/1999/xlink" version="1.1"><rect x="0" y="0" width="900" height="600" fill="#fff"></rect><g transform="translate(464.93443747360084 302.80438014568165)"><path d="M93.4 -132.7C119.4 -109.7 137.7 -80.2 145.4 -49C153.1 -17.8 150.3 15 143.6 50C136.9 85.1 126.3 122.2 101.8 146.2C77.2 170.3 38.6 181.1 3.4 176.4C-31.7 171.7 -63.5 151.4 -98.7 130.8C-133.9 110.2 -172.5 89.4 -178.9 60.3C-185.3 31.2 -159.5 -6.1 -146.4 -47.9C-133.3 -89.6 -132.8 -135.8 -110.5 -160.1C-88.2 -184.4 -44.1 -186.7 -5.2 -179.5C33.7 -172.4 67.4 -155.8 93.4 -132.7" fill="#00ccbc"></path></g></svg>