<svg id="visual" viewBox="0 0 3840 2160" width="3840" height="2160" xmlns="http://www.w3.org/2000/svg" xmlns:xlink="http://www.w3.org/1999/xlink" version="1.1"><rect x="0" y="0" width="3840" height="2160" fill="#fff"></rect><path d="M0 1008L58.2 1040.2C116.3 1072.3 232.7 1136.7 349 1158.7C465.3 1180.7 581.7 1160.3 698 1156.7C814.3 1153 930.7 1166 1047 1169.3C1163.3 1172.7 1279.7 1166.3 1396 1158.2C1512.3 1150 1628.7 1140 1745.2 1154.5C1861.7 1169 1978.3 1208 2094.8 1195.2C2211.3 1182.3 2327.7 1117.7 2444 1091.3C2560.3 1065 2676.7 1077 2793 1080.8C2909.3 1084.7 3025.7 1080.3 3142 1100.3C3258.3 1120.3 3374.7 1164.7 3491 1173.2C3607.3 1181.7 3723.7 1154.3 3781.8 1140.7L3840 1127L3840 2161L3781.8 2161C3723.7 2161 3607.3 2161 3491 2161C3374.7 2161 3258.3 2161 3142 2161C3025.7 2161 2909.3 2161 2793 2161C2676.7 2161 2560.3 2161 2444 2161C2327.7 2161 2211.3 2161 2094.8 2161C1978.3 2161 1861.7 2161 1745.2 2161C1628.7 2161 1512.3 2161 1396 2161C1279.7 2161 1163.3 2161 1047 2161C930.7 2161 814.3 2161 698 2161C581.7 2161 465.3 2161 349 2161C232.7 2161 116.3 2161 58.2 2161L0 2161Z" fill="#00cc99"></path><path d="M0 1223L58.2 1234.2C116.3 1245.3 232.7 1267.7 349 1255C465.3 1242.3 581.7 1194.7 698 1167.2C814.3 1139.7 930.7 1132.3 1047 1168.8C1163.3 1205.3 1279.7 1285.7 1396 1319.5C1512.3 1353.3 1628.7 1340.7 1745.2 1302.3C1861.7 1264 1978.3 1200 2094.8 1178C2211.3 1156 2327.7 1176 2444 1195.8C2560.3 1215.7 2676.7 1235.3 2793 1251.3C2909.3 1267.3 3025.7 1279.7 3142 1273.2C3258.3 1266.7 3374.7 1241.3 3491 1247.2C3607.3 1253 3723.7 1290 3781.8 1308.5L3840 1327L3840 2161L3781.8 2161C3723.7 2161 3607.3 2161 3491 2161C3374.7 2161 3258.3 2161 3142 2161C3025.7 2161 2909.3 2161 2793 2161C2676.7 2161 2560.3 2161 2444 2161C2327.7 2161 2211.3 2161 2094.8 2161C1978.3 2161 1861.7 2161 1745.2 2161C1628.7 2161 1512.3 2161 1396 2161C1279.7 2161 1163.3 2161 1047 2161C930.7 2161 814.3 2161 698 2161C581.7 2161 465.3 2161 349 2161C232.7 2161 116.3 2161 58.2 2161L0 2161Z" fill="#00beb2"></path><path d="M0 1344L58.2 1363.3C116.3 1382.7 232.7 1421.3 349 1411.5C465.3 1401.7 581.7 1343.3 698 1321.7C814.3 1300 930.7 1315 1047 1308.3C1163.3 1301.7 1279.7 1273.3 1396 1272.7C1512.3 1272 1628.7 1299 1745.2 1330.3C1861.7 1361.7 1978.3 1397.3 2094.8 1388.8C2211.3 1380.3 2327.7 1327.7 2444 1324.8C2560.3 1322 2676.7 1369 2793 1375.8C2909.3 1382.7 3025.7 1349.3 3142 1318.2C3258.3 1287 3374.7 1258 3491 1263.2C3607.3 1268.3 3723.7 1307.7 3781.8 1327.3L3840 1347L3840 2161L3781.8 2161C3723.7 2161 3607.3 2161 3491 2161C3374.7 2161 3258.3 2161 3142 2161C3025.7 2161 2909.3 2161 2793 2161C2676.7 2161 2560.3 2161 2444 2161C2327.7 2161 2211.3 2161 2094.8 2161C1978.3 2161 1861.7 2161 1745.2 2161C1628.7 2161 1512.3 2161 1396 2161C1279.7 2161 1163.3 2161 1047 2161C930.7 2161 814.3 2161 698 2161C581.7 2161 465.3 2161 349 2161C232.7 2161 116.3 2161 58.2 2161L0 2161Z" fill="#00adc4"></path><path d="M0 1479L58.2 1456.8C116.3 1434.7 232.7 1390.3 349 1399.2C465.3 1408 581.7 1470 698 1493.3C814.3 1516.7 930.7 1501.3 1047 1476.3C1163.3 1451.3 1279.7 1416.7 1396 1390.8C1512.3 1365 1628.7 1348 1745.2 1372C1861.7 1396 1978.3 1461 2094.8 1496.8C2211.3 1532.7 2327.7 1539.3 2444 1526.7C2560.3 1514 2676.7 1482 2793 1452.2C2909.3 1422.3 3025.7 1394.7 3142 1391.8C3258.3 1389 3374.7 1411 3491 1414.5C3607.3 1418 3723.7 1403 3781.8 1395.5L3840 1388L3840 2161L3781.8 2161C3723.7 2161 3607.3 2161 3491 2161C3374.7 2161 3258.3 2161 3142 2161C3025.7 2161 2909.3 2161 2793 2161C2676.7 2161 2560.3 2161 2444 2161C2327.7 2161 2211.3 2161 2094.8 2161C1978.3 2161 1861.7 2161 1745.2 2161C1628.7 2161 1512.3 2161 1396 2161C1279.7 2161 1163.3 2161 1047 2161C930.7 2161 814.3 2161 698 2161C581.7 2161 465.3 2161 349 2161C232.7 2161 116.3 2161 58.2 2161L0 2161Z" fill="#009acb"></path><path d="M0 1520L58.2 1513C116.3 1506 232.7 1492 349 1503.7C465.3 1515.3 581.7 1552.7 698 1569.5C814.3 1586.3 930.7 1582.7 1047 1561.2C1163.3 1539.7 1279.7 1500.3 1396 1504C1512.3 1507.7 1628.7 1554.3 1745.2 1570C1861.7 1585.7 1978.3 1570.3 2094.8 1563.2C2211.3 1556 2327.7 1557 2444 1541.3C2560.3 1525.7 2676.7 1493.3 2793 1497.2C2909.3 1501 3025.7 1541 3142 1554.3C3258.3 1567.7 3374.7 1554.3 3491 1551.3C3607.3 1548.3 3723.7 1555.7 3781.8 1559.3L3840 1563L3840 2161L3781.8 2161C3723.7 2161 3607.3 2161 3491 2161C3374.7 2161 3258.3 2161 3142 2161C3025.7 2161 2909.3 2161 2793 2161C2676.7 2161 2560.3 2161 2444 2161C2327.7 2161 2211.3 2161 2094.8 2161C1978.3 2161 1861.7 2161 1745.2 2161C1628.7 2161 1512.3 2161 1396 2161C1279.7 2161 1163.3 2161 1047 2161C930.7 2161 814.3 2161 698 2161C581.7 2161 465.3 2161 349 2161C232.7 2161 116.3 2161 58.2 2161L0 2161Z" fill="#0085c6"></path><path d="M0 1593L58.2 1586.2C116.3 1579.3 232.7 1565.7 349 1565.3C465.3 1565 581.7 1578 698 1592C814.3 1606 930.7 1621 1047 1637.5C1163.3 1654 1279.7 1672 1396 1678.2C1512.3 1684.3 1628.7 1678.7 1745.2 1662.2C1861.7 1645.7 1978.3 1618.3 2094.8 1605.2C2211.3 1592 2327.7 1593 2444 1615.8C2560.3 1638.7 2676.7 1683.3 2793 1706.5C2909.3 1729.7 3025.7 1731.3 3142 1724C3258.3 1716.7 3374.7 1700.3 3491 1677.7C3607.3 1655 3723.7 1626 3781.8 1611.5L3840 1597L3840 2161L3781.8 2161C3723.7 2161 3607.3 2161 3491 2161C3374.7 2161 3258.3 2161 3142 2161C3025.7 2161 2909.3 2161 2793 2161C2676.7 2161 2560.3 2161 2444 2161C2327.7 2161 2211.3 2161 2094.8 2161C1978.3 2161 1861.7 2161 1745.2 2161C1628.7 2161 1512.3 2161 1396 2161C1279.7 2161 1163.3 2161 1047 2161C930.7 2161 814.3 2161 698 2161C581.7 2161 465.3 2161 349 2161C232.7 2161 116.3 2161 58.2 2161L0 2161Z" fill="#096fb8"></path><path d="M0 1679L58.2 1688.5C116.3 1698 232.7 1717 349 1724.5C465.3 1732 581.7 1728 698 1722.3C814.3 1716.7 930.7 1709.3 1047 1713.2C1163.3 1717 1279.7 1732 1396 1728.3C1512.3 1724.7 1628.7 1702.3 1745.2 1714.8C1861.7 1727.3 1978.3 1774.7 2094.8 1787.7C2211.3 1800.7 2327.7 1779.3 2444 1757.7C2560.3 1736 2676.7 1714 2793 1721.8C2909.3 1729.7 3025.7 1767.3 3142 1781.8C3258.3 1796.3 3374.7 1787.7 3491 1773.3C3607.3 1759 3723.7 1739 3781.8 1729L3840 1719L3840 2161L3781.8 2161C3723.7 2161 3607.3 2161 3491 2161C3374.7 2161 3258.3 2161 3142 2161C3025.7 2161 2909.3 2161 2793 2161C2676.7 2161 2560.3 2161 2444 2161C2327.7 2161 2211.3 2161 2094.8 2161C1978.3 2161 1861.7 2161 1745.2 2161C1628.7 2161 1512.3 2161 1396 2161C1279.7 2161 1163.3 2161 1047 2161C930.7 2161 814.3 2161 698 2161C581.7 2161 465.3 2161 349 2161C232.7 2161 116.3 2161 58.2 2161L0 2161Z" fill="#2158a8"></path><path d="M0 1777L58.2 1793.5C116.3 1810 232.7 1843 349 1847.3C465.3 1851.7 581.7 1827.3 698 1811.2C814.3 1795 930.7 1787 1047 1798.8C1163.3 1810.7 1279.7 1842.3 1396 1847C1512.3 1851.7 1628.7 1829.3 1745.2 1820.3C1861.7 1811.3 1978.3 1815.7 2094.8 1825.8C2211.3 1836 2327.7 1852 2444 1856C2560.3 1860 2676.7 1852 2793 1845.3C2909.3 1838.7 3025.7 1833.3 3142 1822.3C3258.3 1811.3 3374.7 1794.7 3491 1804.3C3607.3 1814 3723.7 1850 3781.8 1868L3840 1886L3840 2161L3781.8 2161C3723.7 2161 3607.3 2161 3491 2161C3374.7 2161 3258.3 2161 3142 2161C3025.7 2161 2909.3 2161 2793 2161C2676.7 2161 2560.3 2161 2444 2161C2327.7 2161 2211.3 2161 2094.8 2161C1978.3 2161 1861.7 2161 1745.2 2161C1628.7 2161 1512.3 2161 1396 2161C1279.7 2161 1163.3 2161 1047 2161C930.7 2161 814.3 2161 698 2161C581.7 2161 465.3 2161 349 2161C232.7 2161 116.3 2161 58.2 2161L0 2161Z" fill="#324194"></path><path d="M0 1996L58.2 1991.8C116.3 1987.7 232.7 1979.3 349 1966C465.3 1952.7 581.7 1934.3 698 1938.8C814.3 1943.3 930.7 1970.7 1047 1983C1163.3 1995.3 1279.7 1992.7 1396 1982.5C1512.3 1972.3 1628.7 1954.7 1745.2 1936.5C1861.7 1918.3 1978.3 1899.7 2094.8 1909.8C2211.3 1920 2327.7 1959 2444 1968.8C2560.3 1978.7 2676.7 1959.3 2793 1948.5C2909.3 1937.7 3025.7 1935.3 3142 1927.7C3258.3 1920 3374.7 1907 3491 1908.2C3607.3 1909.3 3723.7 1924.7 3781.8 1932.3L3840 1940L3840 2161L3781.8 2161C3723.7 2161 3607.3 2161 3491 2161C3374.7 2161 3258.3 2161 3142 2161C3025.7 2161 2909.3 2161 2793 2161C2676.7 2161 2560.3 2161 2444 2161C2327.7 2161 2211.3 2161 2094.8 2161C1978.3 2161 1861.7 2161 1745.2 2161C1628.7 2161 1512.3 2161 1396 2161C1279.7 2161 1163.3 2161 1047 2161C930.7 2161 814.3 2161 698 2161C581.7 2161 465.3 2161 349 2161C232.7 2161 116.3 2161 58.2 2161L0 2161Z" fill="#3e277d"></path><path d="M0 2014L58.2 2022.2C116.3 2030.3 232.7 2046.7 349 2056.3C465.3 2066 581.7 2069 698 2071C814.3 2073 930.7 2074 1047 2074.5C1163.3 2075 1279.7 2075 1396 2070.3C1512.3 2065.7 1628.7 2056.3 1745.2 2054C1861.7 2051.7 1978.3 2056.3 2094.8 2058.3C2211.3 2060.3 2327.7 2059.7 2444 2059.7C2560.3 2059.7 2676.7 2060.3 2793 2051.3C2909.3 2042.3 3025.7 2023.7 3142 2017.3C3258.3 2011 3374.7 2017 3491 2032.3C3607.3 2047.7 3723.7 2072.3 3781.8 2084.7L3840 2097L3840 2161L3781.8 2161C3723.7 2161 3607.3 2161 3491 2161C3374.7 2161 3258.3 2161 3142 2161C3025.7 2161 2909.3 2161 2793 2161C2676.7 2161 2560.3 2161 2444 2161C2327.7 2161 2211.3 2161 2094.8 2161C1978.3 2161 1861.7 2161 1745.2 2161C1628.7 2161 1512.3 2161 1396 2161C1279.7 2161 1163.3 2161 1047 2161C930.7 2161 814.3 2161 698 2161C581.7 2161 465.3 2161 349 2161C232.7 2161 116.3 2161 58.2 2161L0 2161Z" fill="#440063"></path></svg>