<svg id="visual" viewBox="0 0 900 600" width="900" height="600" xmlns="http://www.w3.org/2000/svg" xmlns:xlink="http://www.w3.org/1999/xlink" version="1.1"><rect width="900" height="600" fill="#ffffff"></rect><g><g transform="translate(165 407)"><path d="M39.6 -45.3C52.4 -36.4 64.7 -25 68.4 -11.1C72 2.9 67 19.3 58 32.2C49 45 36.1 54.3 21.3 60.6C6.5 67 -10.2 70.4 -23.3 65.1C-36.4 59.9 -45.9 46 -51 32C-56 18 -56.5 4 -54.9 -10.5C-53.3 -24.9 -49.6 -39.8 -40.1 -49.3C-30.6 -58.8 -15.3 -62.9 -1 -61.7C13.4 -60.6 26.7 -54.2 39.6 -45.3Z" fill="#00ccbc"></path></g><g transform="translate(96 230)"><path d="M35.5 -42.1C45.3 -34.1 52 -22.2 53.4 -10C54.8 2.2 51 14.7 43.8 23.4C36.5 32.1 25.9 36.9 14.5 41.8C3.2 46.8 -8.8 51.8 -17.8 48.7C-26.9 45.5 -33 34 -36.4 23.3C-39.8 12.7 -40.5 2.7 -40.4 -8.7C-40.3 -20.1 -39.3 -32.9 -32.5 -41.4C-25.6 -49.9 -12.8 -54.1 0 -54.1C12.9 -54.2 25.8 -50.1 35.5 -42.1Z" fill="#00ccbc"></path></g><g transform="translate(640 342)"><path d="M37.9 -45.7C47.4 -37.3 52.1 -23.6 53.3 -10.4C54.5 2.9 52.2 15.9 46.3 27.5C40.5 39 31.1 49.3 19.9 52.4C8.7 55.5 -4.3 51.5 -16.2 46.4C-28.2 41.3 -39.1 35.1 -46.5 25.3C-53.9 15.6 -57.8 2.4 -55.5 -9.6C-53.2 -21.7 -44.7 -32.4 -34.4 -40.7C-24.2 -49 -12.1 -54.8 1.1 -56.1C14.2 -57.4 28.5 -54.1 37.9 -45.7Z" fill="#00ccbc"></path></g><g transform="translate(546 92)"><path d="M30.8 -40.2C37.4 -31.3 38.3 -19.1 39.6 -7.6C40.9 3.9 42.7 14.8 39.6 25.4C36.5 35.9 28.5 46.2 18.5 49C8.5 51.9 -3.5 47.3 -15 42.6C-26.6 37.8 -37.6 33 -43.8 24.3C-49.9 15.7 -51.2 3.2 -49.6 -9.3C-48 -21.7 -43.6 -34.2 -34.9 -42.8C-26.1 -51.4 -13.1 -56 -0.5 -55.4C12.1 -54.9 24.3 -49.2 30.8 -40.2Z" fill="#00ccbc"></path></g><g transform="translate(358 169)"><path d="M21.4 -25.6C27.3 -20.6 31.4 -13.4 32.8 -5.7C34.2 1.9 32.9 10.1 29.8 18.8C26.7 27.5 21.7 36.7 13.8 40.8C5.9 44.9 -4.9 43.9 -13.7 39.8C-22.5 35.6 -29.3 28.2 -34.2 19.7C-39.2 11.2 -42.3 1.6 -41.4 -8C-40.5 -17.6 -35.7 -27.2 -28.2 -32C-20.6 -36.7 -10.3 -36.7 -1.3 -35.1C7.8 -33.6 15.5 -30.7 21.4 -25.6Z" fill="#00ccbc"></path></g><g transform="translate(732 510)"><path d="M28.3 -34.9C36.2 -27.1 41.8 -17.7 44.1 -7.3C46.5 3 45.6 14.4 41.3 25.6C37 36.8 29.2 47.8 18.1 53.4C7 59 -7.3 59.2 -19.5 54.4C-31.8 49.6 -42 39.9 -47.9 28.3C-53.8 16.7 -55.4 3.3 -52.2 -8.2C-49 -19.8 -41 -29.5 -31.5 -36.9C-21.9 -44.4 -11 -49.6 -0.4 -49.1C10.2 -48.7 20.4 -42.6 28.3 -34.9Z" fill="#00ccbc"></path></g><g transform="translate(443 482)"><path d="M27 -34.9C34.5 -26 39.5 -16.9 42 -6.8C44.6 3.4 44.6 14.6 39.6 22.5C34.6 30.5 24.6 35.2 14 39.5C3.4 43.7 -7.7 47.6 -18.2 45.7C-28.8 43.7 -38.8 36 -44.2 25.9C-49.7 15.8 -50.6 3.3 -48.4 -8.4C-46.1 -20.1 -40.7 -31.1 -32.2 -39.8C-23.6 -48.5 -11.8 -54.9 -1 -53.7C9.8 -52.5 19.6 -43.8 27 -34.9Z" fill="#00ccbc"></path></g><g transform="translate(727 134)"><path d="M31.2 -38.4C38.9 -30.8 42.6 -19.5 43.3 -8.6C44.1 2.2 42 12.6 36.8 20.9C31.6 29.1 23.3 35.2 14.1 38.5C4.8 41.8 -5.4 42.3 -14.9 39.5C-24.5 36.7 -33.4 30.5 -40.1 21.8C-46.9 13 -51.5 1.5 -48.8 -7.7C-46.2 -17 -36.2 -24.1 -26.8 -31.4C-17.5 -38.8 -8.7 -46.3 1.5 -48.1C11.8 -49.9 23.5 -46 31.2 -38.4Z" fill="#00ccbc"></path></g><g transform="translate(470 309)"><path d="M42.3 -49.1C55.2 -39.7 66.1 -26.6 67.5 -12.8C68.9 1.1 60.8 15.7 50.8 25.9C40.8 36 29 41.6 17 45.4C5 49.2 -7.2 51.2 -20.9 49.6C-34.7 48 -50.1 42.9 -56.4 32.4C-62.6 21.8 -59.8 5.9 -54.4 -7C-49.1 -20 -41.3 -30 -31.8 -40C-22.3 -50 -11.2 -60.2 1.8 -62.3C14.7 -64.4 29.5 -58.6 42.3 -49.1Z" fill="#00ccbc"></path></g></g></svg>