<svg id="visual" viewBox="0 0 900 600" width="900" height="600" xmlns="http://www.w3.org/2000/svg" xmlns:xlink="http://www.w3.org/1999/xlink" version="1.1"><rect x="0" y="0" width="900" height="600" fill="#fff"></rect><g transform="translate(435.23243995885844 295.7234570089259)"><path d="M84.5 -106.7C115.7 -93.6 151.6 -77.3 173.4 -47.5C195.3 -17.7 203.2 25.4 183 50.8C162.8 76.1 114.5 83.5 79.3 91.6C44.1 99.7 22 108.3 -11 123.5C-44.1 138.7 -88.2 160.4 -114.2 149.3C-140.2 138.2 -148.1 94.5 -155.3 54.6C-162.6 14.7 -169.3 -21.2 -161.9 -55.3C-154.5 -89.3 -133.1 -121.5 -103.8 -135.2C-74.5 -148.8 -37.2 -143.9 -5.3 -136.6C26.6 -129.3 53.3 -119.7 84.5 -106.7" fill="#00ccbc"></path></g></svg>