<svg id="visual" viewBox="0 0 900 600" width="900" height="600" xmlns="http://www.w3.org/2000/svg" xmlns:xlink="http://www.w3.org/1999/xlink" version="1.1"><rect x="0" y="0" width="900" height="600" fill="#00ccbc"></rect><defs><linearGradient id="grad1_0" x1="33.3%" y1="0%" x2="100%" y2="100%"><stop offset="20%" stop-color="#ffffff" stop-opacity="1"></stop><stop offset="80%" stop-color="#ffffff" stop-opacity="1"></stop></linearGradient></defs><defs><linearGradient id="grad1_1" x1="33.3%" y1="0%" x2="100%" y2="100%"><stop offset="20%" stop-color="#ffffff" stop-opacity="1"></stop><stop offset="80%" stop-color="#a5e7dd" stop-opacity="1"></stop></linearGradient></defs><defs><linearGradient id="grad1_2" x1="33.3%" y1="0%" x2="100%" y2="100%"><stop offset="20%" stop-color="#00ccbc" stop-opacity="1"></stop><stop offset="80%" stop-color="#a5e7dd" stop-opacity="1"></stop></linearGradient></defs><defs><linearGradient id="grad2_0" x1="0%" y1="0%" x2="66.7%" y2="100%"><stop offset="20%" stop-color="#ffffff" stop-opacity="1"></stop><stop offset="80%" stop-color="#ffffff" stop-opacity="1"></stop></linearGradient></defs><defs><linearGradient id="grad2_1" x1="0%" y1="0%" x2="66.7%" y2="100%"><stop offset="20%" stop-color="#a5e7dd" stop-opacity="1"></stop><stop offset="80%" stop-color="#ffffff" stop-opacity="1"></stop></linearGradient></defs><defs><linearGradient id="grad2_2" x1="0%" y1="0%" x2="66.7%" y2="100%"><stop offset="20%" stop-color="#a5e7dd" stop-opacity="1"></stop><stop offset="80%" stop-color="#00ccbc" stop-opacity="1"></stop></linearGradient></defs><g transform="translate(900, 0)"><path d="M0 486.7C-68 485.4 -136 484.1 -186.3 449.7C-236.5 415.3 -269.1 347.8 -293.4 293.4C-317.8 239.1 -334.1 197.9 -364.9 151.2C-395.8 104.4 -441.3 52.2 -486.7 0L0 0Z" fill="#6fdacc"></path><path d="M0 324.5C-45.3 323.6 -90.7 322.7 -124.2 299.8C-157.7 276.9 -179.4 231.9 -195.6 195.6C-211.9 159.4 -222.7 131.9 -243.3 100.8C-263.9 69.6 -294.2 34.8 -324.5 0L0 0Z" fill="#d3f3ee"></path><path d="M0 162.2C-22.7 161.8 -45.3 161.4 -62.1 149.9C-78.8 138.4 -89.7 115.9 -97.8 97.8C-105.9 79.7 -111.4 66 -121.6 50.4C-131.9 34.8 -147.1 17.4 -162.2 0L0 0Z" fill="#ffffff"></path></g><g transform="translate(0, 600)"><path d="M0 -486.7C56.7 -456.7 113.4 -426.7 165.7 -400C218 -373.3 266.1 -349.9 316.8 -316.8C367.5 -283.6 420.9 -240.7 449.7 -186.3C478.5 -131.8 482.6 -65.9 486.7 0L0 0Z" fill="#6fdacc"></path><path d="M0 -324.5C37.8 -304.5 75.6 -284.5 110.5 -266.7C145.4 -248.9 177.4 -233.3 211.2 -211.2C245 -189.1 280.6 -160.5 299.8 -124.2C319 -87.9 321.7 -43.9 324.5 0L0 0Z" fill="#d3f3ee"></path><path d="M0 -162.2C18.9 -152.2 37.8 -142.2 55.2 -133.3C72.7 -124.4 88.7 -116.6 105.6 -105.6C122.5 -94.5 140.3 -80.2 149.9 -62.1C159.5 -43.9 160.9 -22 162.2 0L0 0Z" fill="#ffffff"></path></g></svg>