<svg id="visual" viewBox="0 0 900 600" width="900" height="600" xmlns="http://www.w3.org/2000/svg" xmlns:xlink="http://www.w3.org/1999/xlink" version="1.1"><rect x="0" y="0" width="900" height="600" fill="#027F8A"></rect><path d="M0 330L37.5 346C75 362 150 394 225 381.2C300 368.3 375 310.7 450 297.8C525 285 600 317 675 346.7C750 376.3 825 403.7 862.5 417.3L900 431L900 601L862.5 601C825 601 750 601 675 601C600 601 525 601 450 601C375 601 300 601 225 601C150 601 75 601 37.5 601L0 601Z" fill="#00CCBC" stroke-linecap="round" stroke-linejoin="miter"></path></svg>