<svg id="visual" viewBox="0 0 900 600" width="900" height="600" xmlns="http://www.w3.org/2000/svg" xmlns:xlink="http://www.w3.org/1999/xlink" version="1.1"><rect x="0" y="0" width="900" height="600" fill="#ffffff"></rect><defs><linearGradient id="grad1_0" x1="33.3%" y1="0%" x2="100%" y2="100%"><stop offset="20%" stop-color="#00ccbc" stop-opacity="1"></stop><stop offset="80%" stop-color="#00ccbc" stop-opacity="1"></stop></linearGradient></defs><defs><linearGradient id="grad1_1" x1="33.3%" y1="0%" x2="100%" y2="100%"><stop offset="20%" stop-color="#00ccbc" stop-opacity="1"></stop><stop offset="80%" stop-color="#a5e7dd" stop-opacity="1"></stop></linearGradient></defs><defs><linearGradient id="grad1_2" x1="33.3%" y1="0%" x2="100%" y2="100%"><stop offset="20%" stop-color="#ffffff" stop-opacity="1"></stop><stop offset="80%" stop-color="#a5e7dd" stop-opacity="1"></stop></linearGradient></defs><defs><linearGradient id="grad2_0" x1="0%" y1="0%" x2="66.7%" y2="100%"><stop offset="20%" stop-color="#00ccbc" stop-opacity="1"></stop><stop offset="80%" stop-color="#00ccbc" stop-opacity="1"></stop></linearGradient></defs><defs><linearGradient id="grad2_1" x1="0%" y1="0%" x2="66.7%" y2="100%"><stop offset="20%" stop-color="#a5e7dd" stop-opacity="1"></stop><stop offset="80%" stop-color="#00ccbc" stop-opacity="1"></stop></linearGradient></defs><defs><linearGradient id="grad2_2" x1="0%" y1="0%" x2="66.7%" y2="100%"><stop offset="20%" stop-color="#a5e7dd" stop-opacity="1"></stop><stop offset="80%" stop-color="#ffffff" stop-opacity="1"></stop></linearGradient></defs><g transform="translate(900, 0)"><path d="M0 432.7C-43.9 423.4 -87.7 414.1 -130.1 400.4C-172.5 386.7 -213.4 368.7 -249.8 343.8C-286.3 319 -318.3 287.4 -346.3 251.6C-374.3 215.8 -398.3 175.8 -409.9 133.2C-421.5 90.6 -420.8 45.3 -420 0L0 0Z" fill="#d3f3ee"></path><path d="M0 288.4C-29.2 282.2 -58.5 276 -86.7 266.9C-115 257.8 -142.2 245.8 -166.5 229.2C-190.8 212.7 -212.2 191.6 -230.8 167.7C-249.5 143.9 -265.5 117.2 -273.3 88.8C-281 60.4 -280.5 30.2 -280 0L0 0Z" fill="#6fdacc"></path><path d="M0 144.2C-14.6 141.1 -29.2 138 -43.4 133.5C-57.5 128.9 -71.1 122.9 -83.3 114.6C-95.4 106.3 -106.1 95.8 -115.4 83.9C-124.8 71.9 -132.8 58.6 -136.6 44.4C-140.5 30.2 -140.3 15.1 -140 0L0 0Z" fill="#00ccbc"></path></g><g transform="translate(0, 600)"><path d="M0 -424C45.6 -421.8 91.2 -419.6 131.3 -404.2C171.5 -388.8 206.1 -360.3 243.3 -334.9C280.5 -309.6 320.3 -287.4 350 -254.3C379.8 -221.2 399.6 -177.1 409 -132.9C418.3 -88.7 417.1 -44.3 416 0L0 0Z" fill="#d3f3ee"></path><path d="M0 -282.7C30.4 -281.2 60.8 -279.7 87.6 -269.5C114.3 -259.2 137.4 -240.2 162.2 -223.3C187 -206.4 213.5 -191.6 233.4 -169.5C253.2 -147.5 266.4 -118.1 272.6 -88.6C278.9 -59.1 278.1 -29.6 277.3 0L0 0Z" fill="#6fdacc"></path><path d="M0 -141.3C15.2 -140.6 30.4 -139.9 43.8 -134.7C57.2 -129.6 68.7 -120.1 81.1 -111.6C93.5 -103.2 106.8 -95.8 116.7 -84.8C126.6 -73.7 133.2 -59 136.3 -44.3C139.4 -29.6 139 -14.8 138.7 0L0 0Z" fill="#00ccbc"></path></g></svg>