<svg id="visual" viewBox="0 0 900 600" width="900" height="600" xmlns="http://www.w3.org/2000/svg" xmlns:xlink="http://www.w3.org/1999/xlink" version="1.1"><rect x="0" y="0" width="900" height="600" fill="#fff"></rect><g transform="translate(476.96795523748364 281.2361447329042)"><path d="M93.3 -117.3C127.9 -103.4 167.6 -85.4 184.5 -54.9C201.3 -24.4 195.3 18.5 190.1 70.2C185 121.9 180.6 182.3 149.1 213.2C117.6 244.1 58.8 245.6 13.3 227.2C-32.1 208.9 -64.3 170.8 -95.2 139.7C-126.1 108.5 -155.8 84.4 -187.1 46.9C-218.4 9.4 -251.4 -41.5 -249.4 -91.3C-247.4 -141.2 -210.4 -189.9 -163 -199.7C-115.6 -209.4 -57.8 -180.2 -14.2 -160.7C29.4 -141.1 58.8 -131.2 93.3 -117.3" fill="#00ccbc"></path></g></svg>