<svg id="visual" viewBox="0 0 900 600" width="900" height="600" xmlns="http://www.w3.org/2000/svg" xmlns:xlink="http://www.w3.org/1999/xlink" version="1.1"><rect x="0" y="0" width="900" height="600" fill="#fff"></rect><g transform="translate(458.22449183370503 277.6298055779812)"><path d="M72.6 -105.3C101.2 -79.2 136.2 -67.4 172.5 -36.9C208.9 -6.3 246.6 43.1 247.5 92.8C248.4 142.5 212.3 192.6 165 224.4C117.6 256.1 58.8 269.6 9.4 256.6C-40 243.7 -79.9 204.4 -122.9 171.2C-165.9 137.9 -211.8 110.8 -238.1 68.3C-264.4 25.8 -271.1 -32.2 -256.1 -84.8C-241.2 -137.3 -204.6 -184.3 -158.4 -204.6C-112.1 -224.9 -56 -218.5 -17 -195.1C22 -171.7 44.1 -131.3 72.6 -105.3" fill="#00ccbc"></path></g></svg>