<svg id="visual" viewBox="0 0 900 600" width="900" height="600" xmlns="http://www.w3.org/2000/svg" xmlns:xlink="http://www.w3.org/1999/xlink" version="1.1"><rect x="0" y="0" width="900" height="600" fill="#ffffff"></rect><path d="M0 452L30 458C60 464 120 476 180 480.3C240 484.7 300 481.3 360 428.5C420 375.7 480 273.3 540 240C600 206.7 660 242.3 720 265C780 287.7 840 297.3 870 302.2L900 307L900 601L870 601C840 601 780 601 720 601C660 601 600 601 540 601C480 601 420 601 360 601C300 601 240 601 180 601C120 601 60 601 30 601L0 601Z" fill="#00ccbc" stroke-linecap="round" stroke-linejoin="miter"></path></svg>