<svg id="visual" viewBox="0 0 900 600" width="900" height="600" xmlns="http://www.w3.org/2000/svg" xmlns:xlink="http://www.w3.org/1999/xlink" version="1.1"><rect x="0" y="0" width="900" height="600" fill="#027F8A"></rect><path d="M0 375L37.5 365.3C75 355.7 150 336.3 225 322.7C300 309 375 301 450 297.3C525 293.7 600 294.3 675 286.3C750 278.3 825 261.7 862.5 253.3L900 245L900 601L862.5 601C825 601 750 601 675 601C600 601 525 601 450 601C375 601 300 601 225 601C150 601 75 601 37.5 601L0 601Z" fill="#00CCBC" stroke-linecap="round" stroke-linejoin="miter"></path></svg>