<svg id="svg" version="1.1" xmlns="http://www.w3.org/2000/svg" xmlns:xlink="http://www.w3.org/1999/xlink" width="400" height="158.88888888888889" viewBox="0, 0, 400,158.88888888888889"><g id="svgg"><path id="path0" d="M0.000 79.417 L 0.000 158.833 111.717 158.833 C 174.095 158.833,223.503 158.770,223.592 158.690 C 223.679 158.611,225.400 157.888,227.417 157.084 C 229.433 156.280,231.398 155.482,231.783 155.311 C 232.167 155.140,232.527 155.000,232.583 155.000 C 232.639 155.000,233.023 154.846,233.436 154.658 C 233.850 154.469,235.777 153.680,237.719 152.904 C 239.661 152.128,241.400 151.423,241.583 151.337 C 242.025 151.131,243.510 150.523,246.750 149.223 C 248.217 148.634,249.653 148.043,249.942 147.910 C 250.231 147.776,250.519 147.667,250.583 147.667 C 250.647 147.667,250.936 147.559,251.225 147.427 C 251.975 147.085,252.695 146.788,256.167 145.394 C 257.862 144.713,259.486 144.045,259.775 143.911 C 260.064 143.777,260.349 143.667,260.409 143.667 C 260.469 143.667,260.856 143.513,261.270 143.324 C 261.683 143.136,263.610 142.347,265.552 141.571 C 267.494 140.795,269.233 140.090,269.417 140.004 C 269.912 139.773,271.514 139.120,275.417 137.559 C 277.342 136.789,279.067 136.090,279.250 136.004 C 279.733 135.779,281.288 135.144,285.250 133.556 C 287.175 132.785,288.986 132.044,289.275 131.910 C 289.564 131.776,289.849 131.667,289.909 131.667 C 289.969 131.667,290.356 131.513,290.770 131.324 C 291.183 131.136,293.110 130.347,295.052 129.571 C 296.994 128.795,298.733 128.091,298.917 128.006 C 299.608 127.688,301.667 126.840,304.042 125.895 C 306.359 124.972,306.897 124.667,306.200 124.667 C 306.035 124.667,305.829 124.602,305.742 124.523 C 305.655 124.443,305.096 124.286,304.500 124.174 C 303.904 124.061,303.342 123.908,303.250 123.833 C 303.158 123.758,302.642 123.616,302.102 123.517 C 301.562 123.417,301.037 123.272,300.935 123.193 C 300.833 123.114,300.262 122.952,299.667 122.833 C 299.071 122.714,298.508 122.564,298.417 122.500 C 298.325 122.436,297.762 122.286,297.167 122.167 C 296.571 122.048,296.008 121.895,295.917 121.827 C 295.825 121.759,295.300 121.608,294.750 121.491 C 294.200 121.374,293.675 121.224,293.583 121.157 C 293.492 121.091,292.967 120.948,292.417 120.840 C 291.867 120.732,291.192 120.544,290.917 120.422 C 290.642 120.301,290.023 120.149,289.542 120.085 C 289.061 120.021,288.628 119.906,288.581 119.829 C 288.533 119.752,288.064 119.601,287.539 119.493 C 287.013 119.385,286.508 119.241,286.417 119.173 C 286.325 119.104,285.762 118.955,285.167 118.842 C 284.571 118.728,284.008 118.576,283.917 118.503 C 283.825 118.430,283.412 118.317,283.000 118.252 C 282.587 118.186,282.025 118.033,281.750 117.911 C 281.475 117.789,280.800 117.601,280.250 117.493 C 279.700 117.385,279.175 117.242,279.083 117.174 C 278.992 117.106,278.429 116.952,277.833 116.833 C 277.237 116.714,276.675 116.566,276.583 116.503 C 276.492 116.440,275.967 116.289,275.417 116.167 C 274.867 116.044,274.342 115.893,274.250 115.830 C 274.158 115.768,273.596 115.619,273.000 115.500 C 272.404 115.381,271.842 115.228,271.750 115.160 C 271.658 115.092,271.133 114.948,270.583 114.840 C 270.033 114.732,269.358 114.544,269.083 114.422 C 268.808 114.301,268.246 114.147,267.833 114.082 C 267.421 114.016,267.008 113.904,266.917 113.833 C 266.825 113.761,266.300 113.612,265.750 113.500 C 265.200 113.388,264.675 113.239,264.583 113.167 C 264.492 113.096,264.079 112.984,263.667 112.918 C 263.254 112.853,262.692 112.699,262.417 112.578 C 262.142 112.456,261.467 112.268,260.917 112.160 C 260.367 112.052,259.842 111.908,259.750 111.840 C 259.658 111.772,259.096 111.619,258.500 111.500 C 257.904 111.381,257.342 111.232,257.250 111.170 C 257.158 111.107,256.633 110.956,256.083 110.833 C 255.533 110.711,255.008 110.560,254.917 110.497 C 254.825 110.434,254.262 110.286,253.667 110.167 C 253.071 110.048,252.508 109.894,252.417 109.826 C 252.325 109.758,251.800 109.615,251.250 109.507 C 250.700 109.399,250.025 109.211,249.750 109.089 C 249.475 108.967,248.912 108.814,248.500 108.748 C 248.088 108.683,247.675 108.571,247.583 108.499 C 247.492 108.428,246.967 108.278,246.417 108.167 C 245.867 108.055,245.342 107.905,245.250 107.834 C 245.158 107.763,244.746 107.651,244.333 107.585 C 243.921 107.519,243.358 107.366,243.083 107.244 C 242.808 107.122,242.133 106.935,241.583 106.827 C 241.033 106.719,240.508 106.575,240.417 106.507 C 240.325 106.439,239.762 106.286,239.167 106.167 C 238.571 106.048,238.008 105.899,237.917 105.836 C 237.825 105.774,237.300 105.622,236.750 105.500 C 236.200 105.378,235.675 105.226,235.583 105.164 C 235.492 105.101,234.929 104.952,234.333 104.833 C 233.737 104.714,233.175 104.561,233.083 104.493 C 232.992 104.425,232.467 104.281,231.917 104.173 C 230.352 103.866,229.833 103.575,229.833 103.002 C 229.833 102.737,229.769 102.480,229.691 102.432 C 229.613 102.383,229.455 101.648,229.340 100.797 C 229.225 99.946,229.073 99.175,229.002 99.083 C 228.931 98.992,228.780 98.242,228.667 97.417 C 228.553 96.592,228.403 95.842,228.333 95.750 C 228.263 95.658,228.113 94.908,228.000 94.083 C 227.887 93.258,227.741 92.508,227.676 92.417 C 227.611 92.325,227.462 91.537,227.345 90.667 C 227.227 89.796,227.076 89.008,227.008 88.917 C 226.941 88.825,226.790 88.075,226.673 87.250 C 226.556 86.425,226.406 85.675,226.339 85.583 C 226.273 85.492,226.123 84.742,226.006 83.917 C 225.889 83.092,225.739 82.342,225.673 82.250 C 225.606 82.158,225.456 81.408,225.339 80.583 C 225.222 79.758,225.070 79.008,225.000 78.917 C 224.930 78.825,224.774 77.981,224.652 77.042 C 224.531 76.102,224.384 75.333,224.326 75.333 C 224.268 75.333,224.121 74.583,224.000 73.667 C 223.879 72.750,223.729 72.000,223.667 72.000 C 223.605 72.000,223.455 71.250,223.333 70.333 C 223.212 69.417,223.062 68.667,223.000 68.667 C 222.938 68.667,222.788 67.917,222.667 67.000 C 222.545 66.083,222.395 65.333,222.333 65.333 C 222.271 65.333,222.121 64.583,222.000 63.667 C 221.879 62.750,221.731 62.000,221.673 62.000 C 221.614 62.000,221.470 61.232,221.353 60.292 C 221.235 59.353,221.080 58.510,221.006 58.417 C 220.933 58.325,220.780 57.575,220.667 56.750 C 220.553 55.925,220.403 55.175,220.333 55.083 C 220.263 54.992,220.113 54.242,220.000 53.417 C 219.887 52.592,219.737 51.842,219.667 51.750 C 219.597 51.658,219.447 50.908,219.333 50.083 C 219.220 49.258,219.069 48.508,218.998 48.417 C 218.927 48.325,218.778 47.538,218.667 46.667 C 218.556 45.796,218.393 44.994,218.304 44.886 C 218.216 44.777,218.168 44.440,218.197 44.136 L 218.250 43.583 219.833 43.333 C 220.704 43.196,221.492 43.036,221.583 42.978 C 221.675 42.921,222.425 42.781,223.250 42.667 C 224.075 42.553,224.825 42.403,224.917 42.333 C 225.008 42.263,225.758 42.113,226.583 42.000 C 227.408 41.887,228.158 41.736,228.250 41.664 C 228.342 41.593,229.129 41.444,230.000 41.333 C 230.871 41.222,231.658 41.073,231.750 41.002 C 231.842 40.931,232.592 40.780,233.417 40.667 C 234.242 40.553,234.992 40.403,235.083 40.333 C 235.175 40.263,235.925 40.113,236.750 40.000 C 237.575 39.887,238.325 39.737,238.417 39.667 C 238.508 39.597,239.258 39.447,240.083 39.333 C 240.908 39.220,241.658 39.070,241.750 39.000 C 241.842 38.930,242.592 38.780,243.417 38.667 C 244.242 38.553,244.992 38.406,245.083 38.339 C 245.175 38.272,246.019 38.119,246.958 37.999 C 247.898 37.878,248.667 37.729,248.667 37.667 C 248.667 37.605,249.417 37.455,250.333 37.333 C 251.250 37.212,252.000 37.062,252.000 37.000 C 252.000 36.938,252.750 36.788,253.667 36.667 C 254.583 36.545,255.333 36.395,255.333 36.333 C 255.333 36.271,256.083 36.121,257.000 36.000 C 257.917 35.879,258.667 35.729,258.667 35.667 C 258.667 35.605,259.435 35.455,260.375 35.335 C 261.315 35.214,262.158 35.061,262.250 34.994 C 262.342 34.927,263.092 34.780,263.917 34.667 C 264.742 34.553,265.492 34.403,265.583 34.333 C 265.675 34.263,266.425 34.113,267.250 34.000 C 268.075 33.887,268.825 33.737,268.917 33.667 C 269.008 33.597,269.758 33.447,270.583 33.333 C 271.408 33.220,272.158 33.070,272.250 33.000 C 272.342 32.930,273.092 32.780,273.917 32.667 C 274.742 32.553,275.492 32.402,275.583 32.331 C 275.675 32.260,276.462 32.111,277.333 32.000 C 278.204 31.889,278.992 31.740,279.083 31.669 C 279.175 31.598,279.925 31.447,280.750 31.333 C 281.575 31.220,282.325 31.070,282.417 31.000 C 282.508 30.930,283.258 30.780,284.083 30.667 C 284.908 30.553,285.658 30.403,285.750 30.333 C 285.842 30.263,286.592 30.113,287.417 30.000 C 288.242 29.887,288.992 29.736,289.083 29.666 C 289.175 29.595,289.644 29.484,290.125 29.420 C 290.606 29.355,291.000 29.261,291.000 29.210 C 291.000 29.111,288.157 23.545,280.891 9.417 C 279.948 7.583,278.481 4.715,277.630 3.042 L 276.083 0.000 138.042 0.000 L 0.000 0.000 0.000 79.417 " stroke="none" fill="#fbfcfb" fill-rule="evenodd"></path><path id="path1" d="M276.452 0.292 C 276.512 0.452,276.912 1.258,277.341 2.083 C 277.770 2.908,278.966 5.233,279.999 7.250 C 281.032 9.267,282.668 12.454,283.635 14.333 C 284.602 16.212,286.165 19.250,287.108 21.083 C 288.051 22.917,289.359 25.470,290.015 26.758 L 291.206 29.099 292.978 28.841 C 293.953 28.699,294.825 28.536,294.917 28.479 C 295.008 28.421,295.758 28.278,296.583 28.161 C 297.408 28.044,298.158 27.894,298.250 27.827 C 298.342 27.761,299.092 27.611,299.917 27.494 C 300.742 27.377,301.492 27.227,301.583 27.161 C 301.675 27.094,302.425 26.944,303.250 26.827 C 304.075 26.710,304.825 26.561,304.917 26.496 C 305.008 26.431,305.721 26.287,306.500 26.176 C 307.279 26.066,308.067 25.910,308.250 25.831 C 308.433 25.752,309.258 25.599,310.083 25.491 C 310.908 25.382,311.658 25.237,311.750 25.167 C 311.842 25.097,312.592 24.947,313.417 24.833 C 314.242 24.720,314.992 24.570,315.083 24.500 C 315.175 24.430,315.925 24.280,316.750 24.167 C 317.575 24.053,318.325 23.903,318.417 23.833 C 318.508 23.763,319.258 23.613,320.083 23.500 C 320.908 23.387,321.659 23.234,321.751 23.160 C 321.843 23.087,322.687 22.931,323.626 22.814 C 324.565 22.697,325.333 22.553,325.333 22.494 C 325.333 22.435,326.083 22.288,327.000 22.167 C 327.917 22.045,328.667 21.895,328.667 21.833 C 328.667 21.771,329.417 21.621,330.333 21.500 C 331.250 21.379,332.000 21.229,332.000 21.167 C 332.000 21.105,332.750 20.955,333.667 20.833 C 334.583 20.712,335.333 20.562,335.333 20.500 C 335.333 20.438,336.083 20.288,337.000 20.167 C 337.917 20.045,338.667 19.895,338.667 19.833 C 338.667 19.771,339.435 19.624,340.375 19.507 C 341.315 19.389,342.172 19.222,342.281 19.135 C 342.389 19.048,342.727 19.001,343.031 19.030 L 343.583 19.083 343.817 21.833 C 343.946 23.346,344.103 24.621,344.165 24.667 C 344.227 24.712,344.377 25.988,344.497 27.500 C 344.617 29.012,344.769 30.325,344.833 30.417 C 344.898 30.508,345.048 31.821,345.167 33.333 C 345.285 34.846,345.437 36.158,345.505 36.250 C 345.572 36.342,345.720 37.579,345.833 39.000 C 345.947 40.421,346.096 41.658,346.165 41.750 C 346.234 41.842,346.386 43.154,346.503 44.667 C 346.620 46.179,346.771 47.492,346.838 47.583 C 346.905 47.675,347.053 48.913,347.167 50.333 C 347.280 51.754,347.429 52.992,347.499 53.083 C 347.568 53.175,347.718 54.487,347.833 56.000 C 347.948 57.512,348.098 58.825,348.166 58.917 C 348.233 59.008,348.384 60.283,348.500 61.750 C 348.616 63.217,348.768 64.492,348.837 64.583 C 348.906 64.675,349.056 65.950,349.170 67.417 C 349.284 68.883,349.433 70.158,349.500 70.250 C 349.567 70.342,349.717 71.617,349.833 73.083 C 349.950 74.550,350.099 75.825,350.165 75.917 C 350.230 76.008,350.381 77.321,350.500 78.833 C 350.619 80.346,350.771 81.658,350.838 81.750 C 350.905 81.842,351.053 83.079,351.167 84.500 C 351.280 85.921,351.428 87.158,351.495 87.250 C 351.563 87.342,351.715 88.654,351.833 90.167 C 351.952 91.679,352.104 92.992,352.171 93.083 C 352.239 93.175,352.387 94.412,352.500 95.833 C 352.613 97.254,352.761 98.492,352.829 98.583 C 352.897 98.675,353.046 99.987,353.160 101.500 C 353.275 103.013,353.427 104.325,353.498 104.417 C 353.569 104.508,353.724 105.840,353.844 107.375 C 353.963 108.910,354.110 110.167,354.170 110.167 C 354.230 110.167,354.375 111.385,354.491 112.875 C 354.607 114.365,354.760 115.658,354.831 115.750 C 354.902 115.842,355.058 117.173,355.177 118.708 C 355.296 120.244,355.444 121.500,355.505 121.500 C 355.565 121.500,355.712 122.756,355.831 124.292 C 355.950 125.827,356.103 127.158,356.171 127.250 C 356.240 127.342,356.390 128.617,356.506 130.083 C 356.621 131.550,356.765 132.787,356.826 132.833 C 356.937 132.918,357.341 137.117,357.336 138.141 L 357.333 138.698 356.458 138.579 C 355.977 138.513,355.546 138.402,355.500 138.333 C 355.454 138.263,354.967 138.114,354.417 138.001 C 353.867 137.889,353.342 137.740,353.250 137.671 C 353.158 137.601,352.577 137.451,351.958 137.336 C 351.340 137.222,350.833 137.075,350.833 137.010 C 350.833 136.944,350.329 136.798,349.712 136.684 C 349.095 136.571,348.514 136.418,348.420 136.346 C 348.327 136.274,347.762 136.121,347.167 136.008 C 346.571 135.894,346.008 135.752,345.917 135.693 C 345.663 135.529,344.298 135.182,343.875 135.174 C 343.669 135.170,343.500 135.105,343.500 135.031 C 343.500 134.956,342.994 134.796,342.375 134.676 C 341.756 134.555,341.175 134.404,341.083 134.339 C 340.992 134.275,340.467 134.129,339.917 134.016 C 339.367 133.902,338.691 133.707,338.415 133.583 C 338.139 133.458,337.520 133.303,337.040 133.240 C 336.560 133.176,336.167 133.067,336.167 132.997 C 336.167 132.928,335.660 132.778,335.042 132.664 C 334.423 132.549,333.842 132.398,333.750 132.327 C 333.658 132.256,333.115 132.106,332.542 131.994 C 331.969 131.882,331.500 131.738,331.500 131.674 C 331.500 131.610,330.995 131.465,330.379 131.351 C 329.762 131.237,329.181 131.085,329.087 131.013 C 328.993 130.940,328.429 130.788,327.833 130.674 C 327.237 130.560,326.675 130.419,326.583 130.360 C 326.330 130.196,324.965 129.849,324.542 129.841 C 324.335 129.837,324.167 129.772,324.167 129.697 C 324.167 129.622,323.660 129.463,323.042 129.342 C 322.423 129.222,321.842 129.070,321.750 129.006 C 321.658 128.941,321.133 128.796,320.583 128.682 C 320.033 128.569,319.357 128.374,319.081 128.249 C 318.805 128.124,318.186 127.970,317.706 127.906 C 317.226 127.843,316.833 127.734,316.833 127.664 C 316.833 127.595,316.327 127.444,315.708 127.330 C 315.090 127.216,314.508 127.065,314.417 126.994 C 314.325 126.923,313.781 126.773,313.208 126.661 C 312.635 126.548,312.167 126.404,312.167 126.340 C 312.167 126.277,311.662 126.131,311.045 126.018 C 310.429 125.904,309.847 125.752,309.754 125.679 C 309.660 125.607,309.096 125.455,308.500 125.342 C 307.904 125.228,307.323 125.058,307.208 124.964 C 307.080 124.858,306.920 124.851,306.792 124.945 C 306.677 125.030,306.133 125.275,305.583 125.491 C 304.082 126.080,300.655 127.487,300.058 127.760 C 299.769 127.892,299.481 128.000,299.417 128.000 C 299.353 128.000,299.064 128.110,298.775 128.244 C 298.486 128.378,297.237 128.895,296.000 129.394 C 291.970 131.017,290.758 131.510,290.250 131.737 C 289.975 131.859,289.225 132.160,288.583 132.405 C 287.942 132.650,287.267 132.920,287.083 133.005 C 286.742 133.162,284.342 134.139,283.000 134.666 C 282.022 135.051,281.001 135.475,280.583 135.671 C 280.400 135.757,278.862 136.384,277.167 137.064 C 272.445 138.957,271.130 139.493,270.558 139.757 C 270.269 139.891,269.981 140.000,269.917 140.000 C 269.853 140.000,269.564 140.110,269.275 140.244 C 268.986 140.378,267.737 140.895,266.500 141.394 C 265.262 141.892,263.575 142.572,262.750 142.904 C 261.925 143.236,261.100 143.580,260.917 143.668 C 260.733 143.756,259.196 144.384,257.500 145.064 C 254.059 146.443,253.320 146.746,252.558 147.094 C 252.269 147.226,251.981 147.333,251.917 147.333 C 251.853 147.333,251.564 147.443,251.275 147.576 C 250.986 147.710,249.550 148.301,248.083 148.889 C 244.899 150.167,243.433 150.771,242.725 151.094 C 242.436 151.226,242.147 151.333,242.083 151.333 C 242.019 151.333,241.731 151.443,241.442 151.577 C 241.153 151.711,239.904 152.229,238.667 152.727 C 237.429 153.225,235.742 153.905,234.917 154.237 C 234.092 154.570,233.267 154.913,233.083 155.001 C 232.700 155.185,226.709 157.601,225.833 157.925 C 225.512 158.044,224.912 158.295,224.500 158.483 L 223.750 158.826 311.875 158.830 L 400.000 158.833 400.000 79.417 L 400.000 0.000 338.172 0.000 C 279.358 0.000,276.349 0.014,276.452 0.292 " stroke="none" fill="#04ccbc" fill-rule="evenodd"></path><path id="path2" d="M341.917 19.281 C 341.642 19.316,341.267 19.413,341.083 19.496 C 340.900 19.578,340.075 19.735,339.250 19.843 C 338.425 19.951,337.675 20.097,337.583 20.167 C 337.492 20.237,336.742 20.387,335.917 20.500 C 335.092 20.613,334.342 20.763,334.250 20.833 C 334.158 20.903,333.408 21.053,332.583 21.167 C 331.758 21.280,331.008 21.430,330.917 21.500 C 330.825 21.570,330.075 21.720,329.250 21.833 C 328.425 21.947,327.675 22.100,327.583 22.173 C 327.490 22.246,326.647 22.402,325.708 22.519 C 324.768 22.637,324.000 22.781,324.000 22.839 C 324.000 22.898,323.250 23.045,322.333 23.167 C 321.417 23.288,320.667 23.438,320.667 23.500 C 320.667 23.562,319.917 23.712,319.000 23.833 C 318.083 23.955,317.333 24.105,317.333 24.167 C 317.333 24.229,316.583 24.379,315.667 24.500 C 314.750 24.621,314.000 24.771,314.000 24.833 C 314.000 24.895,313.250 25.045,312.333 25.167 C 311.417 25.288,310.667 25.438,310.667 25.500 C 310.667 25.562,309.898 25.709,308.958 25.827 C 308.019 25.944,307.175 26.098,307.083 26.167 C 306.992 26.237,306.242 26.389,305.417 26.506 C 304.592 26.623,303.842 26.773,303.750 26.839 C 303.658 26.906,302.908 27.056,302.083 27.173 C 301.258 27.290,300.508 27.440,300.417 27.506 C 300.325 27.572,299.575 27.722,298.750 27.839 C 297.925 27.956,297.175 28.105,297.083 28.171 C 296.992 28.236,296.279 28.380,295.500 28.490 C 294.721 28.601,293.933 28.756,293.750 28.835 C 293.567 28.914,292.479 29.105,291.333 29.259 C 290.188 29.414,289.175 29.597,289.083 29.667 C 288.992 29.737,288.242 29.887,287.417 30.000 C 286.592 30.113,285.842 30.263,285.750 30.333 C 285.658 30.403,284.908 30.553,284.083 30.667 C 283.258 30.780,282.508 30.930,282.417 31.000 C 282.325 31.070,281.575 31.220,280.750 31.333 C 279.925 31.447,279.175 31.598,279.083 31.669 C 278.992 31.740,278.204 31.889,277.333 32.000 C 276.462 32.111,275.675 32.260,275.583 32.331 C 275.492 32.402,274.742 32.553,273.917 32.667 C 273.092 32.780,272.342 32.930,272.250 33.000 C 272.158 33.070,271.408 33.220,270.583 33.333 C 269.758 33.447,269.008 33.597,268.917 33.667 C 268.825 33.737,268.075 33.887,267.250 34.000 C 266.425 34.113,265.675 34.263,265.583 34.333 C 265.492 34.403,264.742 34.553,263.917 34.667 C 263.092 34.780,262.342 34.927,262.250 34.994 C 262.158 35.061,261.315 35.214,260.375 35.335 C 259.435 35.455,258.667 35.605,258.667 35.667 C 258.667 35.729,257.917 35.879,257.000 36.000 C 256.083 36.121,255.333 36.271,255.333 36.333 C 255.333 36.395,254.583 36.545,253.667 36.667 C 252.750 36.788,252.000 36.938,252.000 37.000 C 252.000 37.062,251.250 37.212,250.333 37.333 C 249.417 37.455,248.667 37.605,248.667 37.667 C 248.667 37.729,247.898 37.878,246.958 37.999 C 246.019 38.119,245.175 38.272,245.083 38.339 C 244.992 38.406,244.242 38.553,243.417 38.667 C 242.592 38.780,241.842 38.930,241.750 39.000 C 241.658 39.070,240.908 39.220,240.083 39.333 C 239.258 39.447,238.508 39.597,238.417 39.667 C 238.325 39.737,237.575 39.887,236.750 40.000 C 235.925 40.113,235.175 40.263,235.083 40.333 C 234.992 40.403,234.242 40.553,233.417 40.667 C 232.592 40.780,231.842 40.931,231.750 41.002 C 231.658 41.073,230.871 41.222,230.000 41.333 C 229.129 41.444,228.342 41.593,228.250 41.664 C 228.158 41.736,227.408 41.887,226.583 42.000 C 225.758 42.113,225.008 42.263,224.917 42.333 C 224.825 42.403,224.075 42.553,223.250 42.667 C 222.425 42.781,221.675 42.921,221.583 42.978 C 221.492 43.036,220.704 43.196,219.833 43.333 L 218.250 43.583 218.197 44.136 C 218.168 44.440,218.216 44.777,218.304 44.886 C 218.393 44.994,218.556 45.796,218.667 46.667 C 218.778 47.538,218.927 48.325,218.998 48.417 C 219.069 48.508,219.220 49.258,219.333 50.083 C 219.447 50.908,219.597 51.658,219.667 51.750 C 219.737 51.842,219.887 52.592,220.000 53.417 C 220.113 54.242,220.263 54.992,220.333 55.083 C 220.403 55.175,220.553 55.925,220.667 56.750 C 220.780 57.575,220.933 58.325,221.006 58.417 C 221.080 58.510,221.235 59.353,221.353 60.292 C 221.470 61.232,221.614 62.000,221.673 62.000 C 221.731 62.000,221.879 62.750,222.000 63.667 C 222.121 64.583,222.271 65.333,222.333 65.333 C 222.395 65.333,222.545 66.083,222.667 67.000 C 222.788 67.917,222.938 68.667,223.000 68.667 C 223.062 68.667,223.212 69.417,223.333 70.333 C 223.455 71.250,223.605 72.000,223.667 72.000 C 223.729 72.000,223.879 72.750,224.000 73.667 C 224.121 74.583,224.268 75.333,224.326 75.333 C 224.384 75.333,224.531 76.102,224.652 77.042 C 224.774 77.981,224.930 78.825,225.000 78.917 C 225.070 79.008,225.222 79.758,225.339 80.583 C 225.456 81.408,225.606 82.158,225.673 82.250 C 225.739 82.342,225.889 83.092,226.006 83.917 C 226.123 84.742,226.273 85.492,226.339 85.583 C 226.406 85.675,226.556 86.425,226.673 87.250 C 226.790 88.075,226.941 88.825,227.008 88.917 C 227.076 89.008,227.227 89.796,227.345 90.667 C 227.462 91.537,227.611 92.325,227.676 92.417 C 227.741 92.508,227.887 93.258,228.000 94.083 C 228.113 94.908,228.263 95.658,228.333 95.750 C 228.403 95.842,228.553 96.592,228.667 97.417 C 228.780 98.242,228.931 98.992,229.002 99.083 C 229.073 99.175,229.225 99.946,229.340 100.797 C 229.455 101.648,229.613 102.383,229.691 102.432 C 229.769 102.480,229.833 102.737,229.833 103.002 C 229.833 103.575,230.352 103.866,231.917 104.173 C 232.467 104.281,232.992 104.425,233.083 104.493 C 233.175 104.561,233.737 104.714,234.333 104.833 C 234.929 104.952,235.492 105.101,235.583 105.164 C 235.675 105.226,236.200 105.378,236.750 105.500 C 237.300 105.622,237.825 105.774,237.917 105.836 C 238.008 105.899,238.571 106.048,239.167 106.167 C 239.762 106.286,240.325 106.439,240.417 106.507 C 240.508 106.575,241.033 106.719,241.583 106.827 C 242.133 106.935,242.808 107.122,243.083 107.244 C 243.358 107.366,243.921 107.519,244.333 107.585 C 244.746 107.651,245.158 107.763,245.250 107.834 C 245.342 107.905,245.867 108.055,246.417 108.167 C 246.967 108.278,247.492 108.428,247.583 108.499 C 247.675 108.571,248.088 108.683,248.500 108.748 C 248.912 108.814,249.475 108.967,249.750 109.089 C 250.025 109.211,250.700 109.399,251.250 109.507 C 251.800 109.615,252.325 109.758,252.417 109.826 C 252.508 109.894,253.071 110.048,253.667 110.167 C 254.262 110.286,254.825 110.434,254.917 110.497 C 255.008 110.560,255.533 110.711,256.083 110.833 C 256.633 110.956,257.158 111.107,257.250 111.170 C 257.342 111.232,257.904 111.381,258.500 111.500 C 259.096 111.619,259.658 111.772,259.750 111.840 C 259.842 111.908,260.367 112.052,260.917 112.160 C 261.467 112.268,262.142 112.456,262.417 112.578 C 262.692 112.699,263.254 112.853,263.667 112.918 C 264.079 112.984,264.492 113.096,264.583 113.167 C 264.675 113.239,265.200 113.388,265.750 113.500 C 266.300 113.612,266.825 113.761,266.917 113.833 C 267.008 113.904,267.421 114.016,267.833 114.082 C 268.246 114.147,268.808 114.301,269.083 114.422 C 269.358 114.544,270.033 114.732,270.583 114.840 C 271.133 114.948,271.658 115.092,271.750 115.160 C 271.842 115.228,272.404 115.381,273.000 115.500 C 273.596 115.619,274.158 115.768,274.250 115.830 C 274.342 115.893,274.867 116.044,275.417 116.167 C 275.967 116.289,276.492 116.440,276.583 116.503 C 276.675 116.566,277.237 116.714,277.833 116.833 C 278.429 116.952,278.992 117.106,279.083 117.174 C 279.175 117.242,279.700 117.385,280.250 117.493 C 280.800 117.601,281.475 117.789,281.750 117.911 C 282.025 118.033,282.587 118.186,283.000 118.252 C 283.412 118.317,283.825 118.430,283.917 118.503 C 284.008 118.576,284.571 118.728,285.167 118.842 C 285.762 118.955,286.325 119.104,286.417 119.173 C 286.508 119.241,287.013 119.385,287.539 119.493 C 288.064 119.601,288.533 119.752,288.581 119.829 C 288.628 119.906,289.061 120.021,289.542 120.085 C 290.023 120.149,290.642 120.301,290.917 120.422 C 291.192 120.544,291.867 120.732,292.417 120.840 C 292.967 120.948,293.492 121.091,293.583 121.157 C 293.675 121.224,294.200 121.374,294.750 121.491 C 295.300 121.608,295.825 121.759,295.917 121.827 C 296.008 121.895,296.571 122.048,297.167 122.167 C 297.762 122.286,298.325 122.436,298.417 122.500 C 298.508 122.564,299.071 122.714,299.667 122.833 C 300.262 122.952,300.833 123.114,300.935 123.193 C 301.037 123.272,301.562 123.417,302.102 123.517 C 302.642 123.616,303.158 123.758,303.250 123.833 C 303.342 123.908,303.904 124.061,304.500 124.175 C 305.096 124.288,305.658 124.436,305.750 124.502 C 305.842 124.569,306.517 124.750,307.250 124.904 C 307.983 125.058,308.733 125.250,308.917 125.330 C 309.100 125.410,309.662 125.566,310.167 125.677 C 310.671 125.787,311.158 125.931,311.250 125.997 C 311.342 126.063,311.904 126.214,312.500 126.333 C 313.096 126.452,313.658 126.607,313.750 126.676 C 313.842 126.745,314.404 126.895,315.000 127.008 C 315.596 127.122,316.167 127.279,316.269 127.359 C 316.371 127.438,316.896 127.584,317.435 127.683 C 317.975 127.783,318.492 127.924,318.583 127.997 C 318.675 128.071,319.200 128.222,319.750 128.333 C 320.300 128.445,320.825 128.595,320.917 128.666 C 321.008 128.737,321.421 128.849,321.833 128.915 C 322.246 128.981,322.808 129.135,323.083 129.258 C 323.358 129.381,324.025 129.560,324.565 129.656 C 325.104 129.752,325.629 129.895,325.731 129.974 C 325.833 130.052,326.404 130.214,327.000 130.333 C 327.596 130.452,328.158 130.601,328.250 130.664 C 328.342 130.727,328.867 130.874,329.417 130.991 C 329.967 131.108,330.492 131.259,330.583 131.327 C 330.675 131.395,331.237 131.548,331.833 131.667 C 332.429 131.786,332.992 131.940,333.083 132.009 C 333.175 132.079,333.737 132.228,334.333 132.342 C 334.929 132.455,335.500 132.613,335.602 132.692 C 335.704 132.771,336.229 132.917,336.769 133.017 C 337.308 133.116,337.825 133.257,337.917 133.331 C 338.008 133.404,338.533 133.555,339.083 133.667 C 339.633 133.778,340.158 133.928,340.250 133.999 C 340.342 134.071,340.754 134.183,341.167 134.248 C 341.579 134.314,342.142 134.468,342.417 134.591 C 342.692 134.714,343.358 134.894,343.898 134.989 C 344.438 135.085,344.963 135.228,345.065 135.307 C 345.167 135.386,345.738 135.548,346.333 135.667 C 346.929 135.786,347.492 135.935,347.583 135.997 C 347.675 136.060,348.200 136.207,348.750 136.324 C 349.300 136.441,349.825 136.593,349.917 136.660 C 350.008 136.728,350.571 136.881,351.167 137.000 C 351.762 137.119,352.325 137.268,352.417 137.331 C 352.508 137.394,353.033 137.538,353.583 137.651 C 354.133 137.764,354.808 137.956,355.083 138.078 C 355.358 138.200,355.977 138.351,356.458 138.415 L 357.333 138.531 357.333 137.609 C 357.333 137.101,357.269 136.647,357.191 136.598 C 357.112 136.550,356.953 135.326,356.838 133.880 C 356.723 132.433,356.574 131.175,356.506 131.083 C 356.438 130.992,356.285 129.679,356.167 128.167 C 356.048 126.654,355.896 125.342,355.829 125.250 C 355.762 125.158,355.609 123.827,355.490 122.292 C 355.370 120.756,355.221 119.500,355.158 119.500 C 355.096 119.500,354.950 118.281,354.834 116.792 C 354.719 115.302,354.569 114.008,354.501 113.917 C 354.433 113.825,354.283 112.550,354.167 111.083 C 354.050 109.617,353.899 108.342,353.830 108.250 C 353.761 108.158,353.611 106.883,353.497 105.417 C 353.383 103.950,353.234 102.675,353.167 102.583 C 353.099 102.492,352.951 101.217,352.837 99.750 C 352.723 98.283,352.574 97.008,352.506 96.917 C 352.438 96.825,352.285 95.513,352.167 94.000 C 352.048 92.487,351.896 91.175,351.829 91.083 C 351.761 90.992,351.613 89.754,351.500 88.333 C 351.387 86.912,351.239 85.675,351.171 85.583 C 351.104 85.492,350.952 84.179,350.833 82.667 C 350.715 81.154,350.562 79.842,350.493 79.750 C 350.425 79.658,350.275 78.346,350.160 76.833 C 350.046 75.321,349.897 74.008,349.829 73.917 C 349.761 73.825,349.613 72.587,349.500 71.167 C 349.387 69.746,349.237 68.508,349.168 68.417 C 349.099 68.325,348.947 67.012,348.830 65.500 C 348.713 63.987,348.563 62.675,348.495 62.583 C 348.428 62.492,348.280 61.254,348.167 59.833 C 348.053 58.413,347.904 57.175,347.835 57.083 C 347.766 56.992,347.615 55.679,347.500 54.167 C 347.385 52.654,347.236 51.342,347.168 51.250 C 347.100 51.158,346.950 49.883,346.833 48.417 C 346.717 46.950,346.565 45.675,346.496 45.583 C 346.427 45.492,346.277 44.217,346.163 42.750 C 346.049 41.283,345.901 40.008,345.834 39.917 C 345.766 39.825,345.615 38.550,345.497 37.083 C 345.379 35.617,345.227 34.342,345.159 34.250 C 345.091 34.158,344.942 32.846,344.827 31.333 C 344.712 29.821,344.563 28.508,344.496 28.417 C 344.428 28.325,344.280 27.087,344.167 25.667 C 344.053 24.246,343.903 23.008,343.833 22.917 C 343.763 22.825,343.652 21.944,343.587 20.958 L 343.468 19.167 342.942 19.192 C 342.653 19.205,342.192 19.246,341.917 19.281 " stroke="none" fill="#d4ec9c" fill-rule="evenodd"></path><path id="path3" d="M281.333 10.230 C 281.333 10.409,281.829 11.333,281.925 11.333 C 281.971 11.333,281.885 11.090,281.733 10.792 C 281.424 10.183,281.333 10.056,281.333 10.230 M287.583 22.500 C 287.726 22.775,287.879 23.000,287.925 23.000 C 287.971 23.000,287.892 22.775,287.750 22.500 C 287.608 22.225,287.454 22.000,287.408 22.000 C 287.362 22.000,287.441 22.225,287.583 22.500 M300.667 127.250 C 300.438 127.381,300.325 127.488,300.417 127.488 C 300.508 127.488,300.771 127.381,301.000 127.250 C 301.229 127.119,301.342 127.012,301.250 127.012 C 301.158 127.012,300.896 127.119,300.667 127.250 M272.833 138.583 C 272.604 138.714,272.492 138.822,272.583 138.822 C 272.675 138.822,272.938 138.714,273.167 138.583 C 273.396 138.452,273.508 138.345,273.417 138.345 C 273.325 138.345,273.063 138.452,272.833 138.583 M269.708 139.839 C 269.150 140.063,269.255 140.177,269.833 139.975 C 270.108 139.879,270.333 139.771,270.333 139.734 C 270.333 139.635,270.130 139.669,269.708 139.839 M263.000 142.583 C 262.771 142.714,262.658 142.822,262.750 142.822 C 262.842 142.822,263.104 142.714,263.333 142.583 C 263.563 142.452,263.675 142.345,263.583 142.345 C 263.492 142.345,263.229 142.452,263.000 142.583 M259.875 143.839 C 259.317 144.063,259.421 144.177,260.000 143.975 C 260.275 143.879,260.500 143.771,260.500 143.734 C 260.500 143.635,260.297 143.669,259.875 143.839 M253.167 146.583 C 252.938 146.714,252.825 146.822,252.917 146.822 C 253.008 146.822,253.271 146.714,253.500 146.583 C 253.729 146.452,253.842 146.345,253.750 146.345 C 253.658 146.345,253.396 146.452,253.167 146.583 M250.042 147.839 C 249.484 148.063,249.588 148.177,250.167 147.975 C 250.442 147.879,250.667 147.771,250.667 147.734 C 250.667 147.635,250.464 147.669,250.042 147.839 " stroke="none" fill="#96e9e4" fill-rule="evenodd"></path><path id="path4" d="M342.862 19.121 L 343.473 19.185 343.592 21.013 C 343.657 22.018,343.758 22.870,343.816 22.906 C 343.924 22.973,343.707 19.594,343.580 19.208 C 343.538 19.083,343.258 19.011,342.880 19.028 L 342.250 19.056 342.862 19.121 M339.833 19.595 L 338.583 19.814 339.750 19.726 C 340.392 19.677,340.988 19.569,341.075 19.485 C 341.162 19.402,341.200 19.343,341.158 19.355 C 341.117 19.367,340.521 19.475,339.833 19.595 M336.417 20.266 L 335.250 20.487 336.333 20.399 C 336.929 20.350,337.488 20.241,337.575 20.155 C 337.662 20.070,337.700 20.010,337.658 20.023 C 337.617 20.035,337.058 20.144,336.417 20.266 M333.083 20.932 L 331.917 21.153 333.000 21.065 C 333.596 21.017,334.155 20.907,334.242 20.822 C 334.329 20.737,334.366 20.677,334.325 20.689 C 334.284 20.702,333.725 20.811,333.083 20.932 M329.750 21.599 L 328.583 21.820 329.667 21.732 C 330.262 21.683,330.821 21.574,330.908 21.489 C 330.995 21.403,331.033 21.343,330.992 21.356 C 330.950 21.368,330.392 21.478,329.750 21.599 M326.417 22.266 L 325.250 22.487 326.333 22.399 C 326.929 22.350,327.488 22.241,327.575 22.155 C 327.662 22.070,327.700 22.010,327.658 22.023 C 327.617 22.035,327.058 22.144,326.417 22.266 M322.417 22.954 C 322.142 22.994,321.855 23.086,321.779 23.159 C 321.663 23.271,322.797 23.134,323.667 22.931 C 324.015 22.849,323.025 22.868,322.417 22.954 M319.083 23.621 C 318.808 23.660,318.521 23.752,318.445 23.826 C 318.329 23.938,319.464 23.801,320.333 23.597 C 320.682 23.516,319.692 23.535,319.083 23.621 M315.750 24.288 C 315.475 24.327,315.188 24.419,315.112 24.492 C 314.996 24.605,316.131 24.467,317.000 24.264 C 317.349 24.182,316.358 24.201,315.750 24.288 M344.283 26.500 C 344.324 27.462,344.413 28.307,344.481 28.377 C 344.548 28.447,344.547 27.959,344.477 27.293 C 344.407 26.628,344.319 25.783,344.280 25.417 C 344.241 25.050,344.243 25.537,344.283 26.500 M312.417 24.954 C 312.142 24.994,311.855 25.086,311.779 25.159 C 311.663 25.271,312.797 25.134,313.667 24.931 C 314.015 24.849,313.025 24.868,312.417 24.954 M308.917 25.667 C 308.350 25.768,308.325 25.788,308.750 25.800 C 309.025 25.808,309.550 25.752,309.917 25.676 C 310.789 25.496,309.917 25.487,308.917 25.667 M306.000 26.262 L 304.917 26.483 305.917 26.394 C 306.467 26.345,306.988 26.236,307.075 26.152 C 307.162 26.069,307.200 26.009,307.158 26.020 C 307.117 26.032,306.596 26.140,306.000 26.262 M302.667 26.929 L 301.583 27.150 302.583 27.061 C 303.133 27.012,303.655 26.903,303.742 26.819 C 303.829 26.735,303.866 26.676,303.825 26.687 C 303.784 26.698,303.262 26.807,302.667 26.929 M299.333 27.595 L 298.250 27.817 299.250 27.728 C 299.800 27.678,300.321 27.570,300.408 27.486 C 300.495 27.402,300.533 27.342,300.492 27.354 C 300.450 27.365,299.929 27.474,299.333 27.595 M296.000 28.262 L 294.917 28.483 295.917 28.394 C 296.467 28.345,296.988 28.236,297.075 28.152 C 297.162 28.069,297.200 28.009,297.158 28.020 C 297.117 28.032,296.596 28.140,296.000 28.262 M292.553 28.897 C 291.895 28.999,291.316 29.125,291.265 29.177 C 291.215 29.228,291.730 29.191,292.408 29.093 C 293.087 28.996,293.698 28.860,293.766 28.792 C 293.833 28.723,293.858 28.676,293.819 28.688 C 293.781 28.700,293.211 28.794,292.553 28.897 M344.891 32.221 C 344.970 33.245,345.083 34.136,345.142 34.200 C 345.202 34.265,345.175 33.464,345.083 32.422 C 344.992 31.379,344.878 30.488,344.832 30.442 C 344.785 30.396,344.812 31.196,344.891 32.221 M345.544 37.000 C 345.541 37.412,345.594 38.237,345.661 38.833 C 345.776 39.861,345.783 39.874,345.790 39.083 C 345.794 38.625,345.741 37.800,345.673 37.250 C 345.561 36.346,345.549 36.322,345.544 37.000 M346.224 43.554 C 346.303 44.578,346.417 45.470,346.477 45.535 C 346.537 45.600,346.510 44.799,346.418 43.755 C 346.326 42.712,346.212 41.821,346.165 41.775 C 346.118 41.729,346.145 42.529,346.224 43.554 M346.877 48.333 C 346.875 48.746,346.927 49.571,346.994 50.167 C 347.110 51.194,347.116 51.207,347.123 50.417 C 347.127 49.958,347.075 49.133,347.006 48.583 C 346.894 47.679,346.882 47.655,346.877 48.333 M347.582 55.000 C 347.674 56.087,347.788 57.013,347.835 57.059 C 347.882 57.105,347.844 56.253,347.752 55.166 C 347.659 54.080,347.545 53.153,347.498 53.108 C 347.452 53.062,347.489 53.914,347.582 55.000 M348.210 59.750 C 348.206 60.208,348.259 61.033,348.327 61.583 C 348.439 62.487,348.451 62.511,348.456 61.833 C 348.459 61.421,348.406 60.596,348.339 60.000 C 348.224 58.973,348.217 58.960,348.210 59.750 M348.915 66.411 C 349.008 67.455,349.122 68.346,349.168 68.392 C 349.294 68.516,348.984 64.770,348.856 64.632 C 348.796 64.567,348.823 65.368,348.915 66.411 M349.544 71.083 C 349.539 71.542,349.592 72.367,349.660 72.917 C 349.772 73.821,349.785 73.845,349.789 73.167 C 349.792 72.754,349.740 71.929,349.673 71.333 C 349.557 70.306,349.550 70.293,349.544 71.083 M350.224 77.721 C 350.303 78.745,350.416 79.636,350.476 79.700 C 350.535 79.765,350.508 78.964,350.417 77.922 C 350.325 76.879,350.212 75.988,350.165 75.942 C 350.118 75.896,350.145 76.696,350.224 77.721 M350.856 82.873 C 350.926 83.539,351.015 84.383,351.054 84.750 C 351.092 85.117,351.091 84.629,351.050 83.667 C 351.009 82.704,350.921 81.860,350.853 81.790 C 350.785 81.720,350.787 82.208,350.856 82.873 M351.557 89.054 C 351.637 90.078,351.750 90.969,351.809 91.034 C 351.868 91.098,351.842 90.298,351.750 89.255 C 351.658 88.212,351.545 87.321,351.498 87.275 C 351.452 87.229,351.478 88.029,351.557 89.054 M352.190 94.207 C 352.259 94.872,352.348 95.717,352.387 96.083 C 352.426 96.450,352.424 95.962,352.383 95.000 C 352.343 94.037,352.254 93.193,352.186 93.123 C 352.118 93.053,352.120 93.541,352.190 94.207 M352.859 99.960 C 353.066 102.412,353.138 102.678,353.050 100.667 C 353.004 99.612,352.915 98.694,352.852 98.627 C 352.788 98.559,352.792 99.159,352.859 99.960 M353.526 105.709 C 353.743 108.085,353.805 108.313,353.719 106.417 C 353.673 105.408,353.583 104.527,353.518 104.459 C 353.454 104.390,353.457 104.953,353.526 105.709 M354.212 110.917 C 354.208 111.375,354.260 112.237,354.327 112.833 C 354.442 113.856,354.450 113.870,354.455 113.083 C 354.458 112.625,354.406 111.763,354.339 111.167 C 354.224 110.144,354.217 110.130,354.212 110.917 M354.860 117.042 C 355.077 119.419,355.139 119.646,355.053 117.750 C 355.007 116.742,354.916 115.861,354.852 115.792 C 354.787 115.723,354.790 116.286,354.860 117.042 M355.614 123.250 C 355.660 124.258,355.750 125.139,355.815 125.208 C 355.880 125.277,355.876 124.714,355.807 123.958 C 355.590 121.581,355.528 121.354,355.614 123.250 M307.253 125.004 C 307.294 125.072,307.515 125.162,307.742 125.206 C 307.970 125.250,308.122 125.230,308.081 125.162 C 308.039 125.095,307.819 125.004,307.591 124.961 C 307.363 124.917,307.211 124.937,307.253 125.004 M314.423 127.011 C 314.463 127.075,314.718 127.161,314.989 127.201 C 315.260 127.240,315.450 127.220,315.410 127.156 C 315.370 127.091,315.115 127.006,314.844 126.966 C 314.573 126.926,314.384 126.946,314.423 127.011 M356.250 129.078 C 356.342 130.121,356.455 131.012,356.502 131.058 C 356.627 131.182,356.317 127.437,356.191 127.300 C 356.132 127.235,356.158 128.036,356.250 129.078 M317.042 127.782 C 317.202 127.823,317.465 127.823,317.625 127.782 C 317.785 127.740,317.654 127.705,317.333 127.705 C 317.012 127.705,316.881 127.740,317.042 127.782 M319.257 128.344 C 319.297 128.409,319.551 128.494,319.822 128.534 C 320.094 128.574,320.283 128.554,320.243 128.489 C 320.203 128.425,319.949 128.339,319.678 128.299 C 319.406 128.260,319.217 128.280,319.257 128.344 M321.757 129.011 C 321.797 129.075,322.051 129.161,322.322 129.201 C 322.594 129.240,322.783 129.220,322.743 129.156 C 322.703 129.091,322.449 129.006,322.178 128.966 C 321.906 128.926,321.717 128.946,321.757 129.011 M324.375 129.782 C 324.535 129.823,324.798 129.823,324.958 129.782 C 325.119 129.740,324.987 129.705,324.667 129.705 C 324.346 129.705,324.215 129.740,324.375 129.782 M293.167 130.417 C 292.938 130.548,292.825 130.655,292.917 130.655 C 293.008 130.655,293.271 130.548,293.500 130.417 C 293.729 130.286,293.842 130.178,293.750 130.178 C 293.658 130.178,293.396 130.286,293.167 130.417 M326.586 130.338 C 326.628 130.405,326.848 130.496,327.076 130.539 C 327.304 130.583,327.456 130.563,327.414 130.496 C 327.372 130.428,327.152 130.338,326.924 130.294 C 326.696 130.250,326.544 130.270,326.586 130.338 M289.917 131.756 C 289.498 131.958,289.484 131.980,289.833 131.896 C 290.063 131.841,290.321 131.729,290.408 131.648 C 290.624 131.446,290.506 131.472,289.917 131.756 M333.757 132.344 C 333.797 132.409,334.051 132.494,334.322 132.534 C 334.594 132.574,334.783 132.554,334.743 132.489 C 334.703 132.425,334.449 132.339,334.178 132.299 C 333.906 132.260,333.717 132.280,333.757 132.344 M356.950 134.667 C 356.991 135.629,357.079 136.474,357.147 136.543 C 357.215 136.613,357.213 136.126,357.144 135.460 C 357.074 134.795,356.985 133.950,356.946 133.583 C 356.908 133.217,356.909 133.704,356.950 134.667 M336.375 133.115 C 336.535 133.157,336.798 133.157,336.958 133.115 C 337.119 133.073,336.987 133.039,336.667 133.039 C 336.346 133.039,336.215 133.073,336.375 133.115 M338.590 133.678 C 338.630 133.742,338.885 133.827,339.156 133.867 C 339.427 133.907,339.616 133.887,339.577 133.822 C 339.537 133.758,339.282 133.673,339.011 133.633 C 338.740 133.593,338.550 133.613,338.590 133.678 M341.090 134.344 C 341.130 134.409,341.385 134.494,341.656 134.534 C 341.927 134.574,342.116 134.554,342.077 134.489 C 342.037 134.425,341.782 134.339,341.511 134.299 C 341.240 134.260,341.050 134.280,341.090 134.344 M343.708 135.115 C 343.869 135.157,344.131 135.157,344.292 135.115 C 344.452 135.073,344.321 135.039,344.000 135.039 C 343.679 135.039,343.548 135.073,343.708 135.115 M280.083 135.756 C 279.665 135.958,279.651 135.980,280.000 135.896 C 280.229 135.841,280.488 135.729,280.575 135.648 C 280.791 135.446,280.672 135.472,280.083 135.756 M345.919 135.671 C 345.961 135.738,346.181 135.829,346.409 135.873 C 346.637 135.916,346.789 135.897,346.747 135.829 C 346.706 135.762,346.485 135.671,346.258 135.627 C 346.030 135.584,345.878 135.603,345.919 135.671 M353.253 137.671 C 353.294 137.738,353.515 137.829,353.742 137.873 C 353.970 137.916,354.122 137.897,354.081 137.829 C 354.039 137.762,353.819 137.671,353.591 137.627 C 353.363 137.584,353.211 137.603,353.253 137.671 M355.708 138.448 C 355.869 138.490,356.131 138.490,356.292 138.448 C 356.452 138.406,356.321 138.372,356.000 138.372 C 355.679 138.372,355.548 138.406,355.708 138.448 M252.250 147.089 C 251.831 147.291,251.818 147.314,252.167 147.230 C 252.396 147.174,252.655 147.063,252.742 146.981 C 252.958 146.779,252.839 146.805,252.250 147.089 M235.833 153.750 C 235.604 153.881,235.492 153.988,235.583 153.988 C 235.675 153.988,235.938 153.881,236.167 153.750 C 236.396 153.619,236.508 153.512,236.417 153.512 C 236.325 153.512,236.063 153.619,235.833 153.750 M232.583 155.089 C 232.165 155.291,232.151 155.314,232.500 155.230 C 232.729 155.174,232.988 155.063,233.075 154.981 C 233.291 154.779,233.172 154.805,232.583 155.089 " stroke="none" fill="#5ce0d6" fill-rule="evenodd"></path></g></svg>