<svg id="visual" viewBox="0 0 900 600" width="900" height="600" xmlns="http://www.w3.org/2000/svg" xmlns:xlink="http://www.w3.org/1999/xlink" version="1.1"><rect width="900" height="600" fill="#ffffff"></rect><g><g transform="translate(546 466)"><path d="M46.6 -55.1C56.6 -47 58.6 -28.8 61.7 -10.9C64.9 7 69.2 24.8 63.8 39.4C58.4 54.1 43.3 65.7 27.9 67.2C12.5 68.7 -3.1 60 -18.9 53.5C-34.6 47.1 -50.6 42.7 -60.4 31.9C-70.2 21 -73.9 3.7 -71.7 -13.2C-69.4 -30.1 -61.1 -46.6 -48.2 -54.2C-35.3 -61.7 -17.6 -60.5 0.3 -60.8C18.2 -61.2 36.5 -63.2 46.6 -55.1Z" fill="#00ccbc"></path></g><g transform="translate(247 297)"><path d="M40.4 -47.1C51.8 -38.6 60 -25.3 63.2 -10.7C66.3 4 64.3 20 56.8 32.6C49.3 45.2 36.2 54.5 22.2 58.5C8.1 62.6 -6.9 61.4 -18.4 55.2C-29.8 49 -37.7 37.6 -45.6 25.5C-53.5 13.5 -61.4 0.6 -60.6 -11.9C-59.9 -24.4 -50.4 -36.6 -38.9 -45.1C-27.3 -53.6 -13.6 -58.4 0.4 -58.9C14.5 -59.4 29 -55.6 40.4 -47.1Z" fill="#00ccbc"></path></g><g transform="translate(659 162)"><path d="M28.4 -31.7C37.9 -25.8 47.6 -18 48.9 -8.9C50.2 0.3 43.3 10.6 36.8 20.8C30.4 30.9 24.5 40.9 15.2 46.3C6 51.6 -6.6 52.2 -15.1 46.8C-23.6 41.4 -27.9 30 -32.2 19.9C-36.5 9.8 -40.8 0.9 -40.4 -8.2C-40.1 -17.3 -35.2 -26.7 -27.7 -32.9C-20.2 -39.1 -10.1 -42.1 -0.3 -41.7C9.4 -41.3 18.9 -37.5 28.4 -31.7Z" fill="#00ccbc"></path></g><g transform="translate(780 442)"><path d="M27.5 -31.7C36.2 -25.4 44.2 -17.3 46.4 -7.7C48.6 1.8 45 12.9 39 21.8C33 30.7 24.6 37.5 15.3 40C6.1 42.4 -4 40.5 -13 36.8C-22 33 -29.9 27.4 -36.2 19.4C-42.6 11.5 -47.4 1.1 -46.2 -8.6C-45 -18.3 -37.9 -27.5 -29.2 -33.8C-20.5 -40.1 -10.2 -43.6 -0.4 -43.1C9.4 -42.5 18.8 -38.1 27.5 -31.7Z" fill="#00ccbc"></path></g><g transform="translate(465 308)"><path d="M25.4 -31C32.5 -24.3 37.6 -15.9 37.7 -7.8C37.8 0.3 32.8 8.2 27.9 15.5C23 22.8 18.1 29.6 11.5 32.1C5 34.7 -3.2 33.1 -11.7 30.7C-20.2 28.3 -29 25 -32.5 18.9C-35.9 12.7 -34 3.5 -31.3 -4.5C-28.7 -12.5 -25.3 -19.4 -20 -26.4C-14.7 -33.4 -7.3 -40.5 0.9 -41.6C9.1 -42.7 18.3 -37.7 25.4 -31Z" fill="#00ccbc"></path></g><g transform="translate(89 206)"><path d="M45.4 -55.2C56.1 -45 60.4 -28.2 62.3 -11.8C64.3 4.6 63.9 20.7 57.9 35.6C51.9 50.5 40.2 64.4 26.1 67.9C11.9 71.5 -4.6 64.7 -19.8 57.7C-35.1 50.8 -49.1 43.6 -58.5 31.7C-67.9 19.8 -72.6 3.1 -70.8 -13.4C-69 -29.8 -60.6 -46.1 -47.7 -55.8C-34.8 -65.6 -17.4 -68.9 -0.1 -68.8C17.3 -68.7 34.6 -65.3 45.4 -55.2Z" fill="#00ccbc"></path></g><g transform="translate(410 141)"><path d="M27.9 -33.7C35.8 -26.7 41.5 -17.5 42.2 -8.2C43 1.1 38.8 10.5 33 17.6C27.2 24.7 19.8 29.4 12 31.6C4.2 33.8 -3.9 33.6 -12.9 31.9C-21.9 30.2 -31.6 27 -36.7 20.2C-41.9 13.4 -42.4 2.9 -39.6 -5.9C-36.7 -14.7 -30.5 -21.9 -23.4 -29C-16.2 -36.1 -8.1 -43.2 1 -44.3C10 -45.4 20.1 -40.6 27.9 -33.7Z" fill="#00ccbc"></path></g><g transform="translate(278 471)"><path d="M29.4 -37.3C37.6 -28.2 43.3 -18.4 46 -7.5C48.6 3.4 48 15.4 43 25.5C38 35.6 28.4 43.7 16.9 49.1C5.4 54.5 -8.2 57.1 -18 52.3C-27.9 47.5 -34.1 35.4 -39.6 23.8C-45.1 12.3 -49.9 1.3 -48.1 -8.4C-46.3 -18.1 -37.8 -26.6 -28.7 -35.5C-19.6 -44.5 -9.8 -53.9 0.4 -54.3C10.6 -54.8 21.2 -46.4 29.4 -37.3Z" fill="#00ccbc"></path></g><g transform="translate(97 507)"><path d="M20.7 -23.6C27.8 -18.8 35 -13.1 36.4 -6.3C37.7 0.5 33.2 8.5 28.2 15.4C23.2 22.3 17.8 28.2 10.7 31.8C3.6 35.4 -5.1 36.8 -14.4 35.3C-23.7 33.8 -33.4 29.3 -37.1 21.9C-40.7 14.5 -38.2 4.1 -34.9 -4.7C-31.7 -13.6 -27.6 -20.8 -21.7 -25.8C-15.7 -30.8 -7.9 -33.5 -0.5 -32.9C6.8 -32.3 13.7 -28.4 20.7 -23.6Z" fill="#00ccbc"></path></g><g transform="translate(244 89)"><path d="M40.8 -48.8C53 -38.5 62.9 -25.7 64.5 -12C66.1 1.6 59.4 16 51.1 28.8C42.9 41.5 33 52.6 21 56.2C9.1 59.9 -5 56.1 -20.1 52C-35.2 47.9 -51.4 43.4 -58.8 32.8C-66.2 22.2 -64.8 5.5 -59.3 -7.8C-53.8 -21.2 -44.2 -31.2 -33.6 -41.8C-23 -52.4 -11.5 -63.6 1.4 -65.3C14.4 -67 28.7 -59.2 40.8 -48.8Z" fill="#00ccbc"></path></g><g transform="translate(812 256)"><path d="M38 -44.3C48.1 -36.7 54.6 -23.7 54.5 -11.5C54.4 0.7 47.8 12.2 41.1 23.8C34.5 35.3 27.9 46.9 18.4 50.2C8.9 53.4 -3.4 48.4 -16.1 43.9C-28.7 39.5 -41.7 35.5 -46 27C-50.4 18.6 -46.1 5.6 -42.9 -6.7C-39.8 -19 -37.6 -30.7 -30.7 -38.8C-23.7 -47 -11.8 -51.7 1 -52.9C13.9 -54.1 27.8 -51.9 38 -44.3Z" fill="#00ccbc"></path></g></g></svg>