<svg id="visual" viewBox="0 0 900 600" width="900" height="600" xmlns="http://www.w3.org/2000/svg" xmlns:xlink="http://www.w3.org/1999/xlink" version="1.1"><rect x="0" y="0" width="900" height="600" fill="#ffffff"></rect><defs><linearGradient id="grad1_0" x1="33.3%" y1="100%" x2="100%" y2="0%"><stop offset="20%" stop-color="#00ccbc" stop-opacity="1"></stop><stop offset="80%" stop-color="#00ccbc" stop-opacity="1"></stop></linearGradient></defs><defs><linearGradient id="grad1_1" x1="33.3%" y1="100%" x2="100%" y2="0%"><stop offset="20%" stop-color="#00ccbc" stop-opacity="1"></stop><stop offset="80%" stop-color="#a5e7dd" stop-opacity="1"></stop></linearGradient></defs><defs><linearGradient id="grad1_2" x1="33.3%" y1="100%" x2="100%" y2="0%"><stop offset="20%" stop-color="#ffffff" stop-opacity="1"></stop><stop offset="80%" stop-color="#a5e7dd" stop-opacity="1"></stop></linearGradient></defs><defs><linearGradient id="grad2_0" x1="0%" y1="100%" x2="66.7%" y2="0%"><stop offset="20%" stop-color="#00ccbc" stop-opacity="1"></stop><stop offset="80%" stop-color="#00ccbc" stop-opacity="1"></stop></linearGradient></defs><defs><linearGradient id="grad2_1" x1="0%" y1="100%" x2="66.7%" y2="0%"><stop offset="20%" stop-color="#a5e7dd" stop-opacity="1"></stop><stop offset="80%" stop-color="#00ccbc" stop-opacity="1"></stop></linearGradient></defs><defs><linearGradient id="grad2_2" x1="0%" y1="100%" x2="66.7%" y2="0%"><stop offset="20%" stop-color="#a5e7dd" stop-opacity="1"></stop><stop offset="80%" stop-color="#ffffff" stop-opacity="1"></stop></linearGradient></defs><g transform="translate(900, 600)"><path d="M-412 0C-407.9 -42.3 -403.7 -84.5 -395.6 -128.6C-387.5 -172.6 -375.5 -218.3 -350 -254.3C-324.6 -290.3 -285.7 -316.7 -246.9 -339.8C-208.1 -362.9 -169.4 -382.9 -128.2 -394.7C-87.1 -406.5 -43.6 -410.3 0 -414L0 0Z" fill="#d3f3ee"></path><path d="M-274.7 0C-271.9 -28.2 -269.2 -56.4 -263.8 -85.7C-258.4 -115 -250.3 -145.5 -233.4 -169.5C-216.4 -193.6 -190.4 -211.1 -164.6 -226.5C-138.7 -241.9 -112.9 -255.2 -85.5 -263.1C-58.1 -271 -29 -273.5 0 -276L0 0Z" fill="#6fdacc"></path><path d="M-137.3 0C-136 -14.1 -134.6 -28.2 -131.9 -42.9C-129.2 -57.5 -125.2 -72.8 -116.7 -84.8C-108.2 -96.8 -95.2 -105.6 -82.3 -113.3C-69.4 -121 -56.5 -127.6 -42.7 -131.6C-29 -135.5 -14.5 -136.8 0 -138L0 0Z" fill="#00ccbc"></path></g><g transform="translate(0, 0)"><path d="M432.7 0C427 45 421.3 90.1 407.1 132.3C392.8 174.4 370.1 213.7 343 249.2C316 284.7 284.6 316.4 248.6 342.2C212.6 368 172 387.8 129.8 399.4C87.6 411.1 43.8 414.5 0 418L0 0Z" fill="#d3f3ee"></path><path d="M288.4 0C284.6 30 280.9 60.1 271.4 88.2C261.9 116.3 246.7 142.5 228.7 166.1C210.6 189.8 189.8 211 165.8 228.1C141.8 245.3 114.7 258.5 86.5 266.3C58.4 274.1 29.2 276.4 0 278.7L0 0Z" fill="#6fdacc"></path><path d="M144.2 0C142.3 15 140.4 30 135.7 44.1C130.9 58.1 123.4 71.2 114.3 83.1C105.3 94.9 94.9 105.5 82.9 114.1C70.9 122.7 57.3 129.3 43.3 133.1C29.2 137 14.6 138.2 0 139.3L0 0Z" fill="#00ccbc"></path></g></svg>