<svg id="visual" viewBox="0 0 900 600" width="900" height="600" xmlns="http://www.w3.org/2000/svg" xmlns:xlink="http://www.w3.org/1999/xlink" version="1.1"><rect x="0" y="0" width="900" height="600" fill="#ffffff"></rect><path d="M0 439L30 439.3C60 439.7 120 440.3 180 403.3C240 366.3 300 291.7 360 267.7C420 243.7 480 270.3 540 291.3C600 312.3 660 327.7 720 326C780 324.3 840 305.7 870 296.3L900 287L900 601L870 601C840 601 780 601 720 601C660 601 600 601 540 601C480 601 420 601 360 601C300 601 240 601 180 601C120 601 60 601 30 601L0 601Z" fill="#00ccbc" stroke-linecap="round" stroke-linejoin="miter"></path></svg>