<svg id="visual" viewBox="0 0 900 600" width="900" height="600" xmlns="http://www.w3.org/2000/svg" xmlns:xlink="http://www.w3.org/1999/xlink" version="1.1"><rect x="0" y="0" width="900" height="600" fill="#fff"></rect><g transform="translate(491.59550987160674 285.68364403655556)"><path d="M66.7 -104.5C80 -82 80.1 -54.1 83.9 -30.2C87.7 -6.3 95.2 13.6 102 45.7C108.8 77.8 115 122.2 97.8 146.5C80.7 170.8 40.4 174.9 9.9 161.3C-20.6 147.6 -41.1 116.3 -70.8 96.1C-100.4 75.9 -139.1 66.8 -164.5 41.1C-189.9 15.3 -201.9 -27.1 -182.5 -50.7C-163 -74.4 -112.1 -79.3 -76.4 -94.5C-40.8 -109.8 -20.4 -135.4 3.1 -139.7C26.6 -144 53.3 -127 66.7 -104.5" fill="#00ccbc"></path></g></svg>