<svg id="visual" viewBox="0 0 900 600" width="900" height="600" xmlns="http://www.w3.org/2000/svg" xmlns:xlink="http://www.w3.org/1999/xlink" version="1.1"><rect width="900" height="600" fill="#ffffff"></rect><g><g transform="translate(532 277)"><path d="M48.3 -57.3C58.9 -48.7 61.2 -29.9 63.5 -11.9C65.9 6.1 68.2 23.4 63 40.2C57.9 57 45.2 73.2 29.1 78.4C13 83.6 -6.6 77.8 -24.6 70.2C-42.7 62.5 -59.1 53.1 -65.2 39.2C-71.3 25.4 -67.1 7.2 -61.8 -8.9C-56.6 -24.9 -50.4 -38.8 -39.9 -47.4C-29.4 -56 -14.7 -59.4 2.1 -61.8C18.9 -64.3 37.7 -65.9 48.3 -57.3Z" fill="#00ccbc"></path></g><g transform="translate(143 267)"><path d="M39 -45.4C48.1 -38.9 51.2 -24.3 52.6 -10.2C54 3.9 53.8 17.4 47.9 27.5C41.9 37.6 30.2 44.2 17.3 50C4.3 55.9 -9.9 61 -20.3 56.8C-30.7 52.6 -37.4 39 -42.7 26.4C-48.1 13.7 -52 1.9 -51.9 -11C-51.9 -23.9 -47.7 -37.9 -38.4 -44.3C-29.1 -50.7 -14.5 -49.5 0.2 -49.7C15 -50 30 -51.8 39 -45.4Z" fill="#00ccbc"></path></g><g transform="translate(687 462)"><path d="M35.7 -40.9C45 -34.7 50.6 -22.3 53.6 -8.9C56.7 4.5 57.2 18.9 50.8 28.6C44.4 38.3 30.9 43.2 17.7 47.6C4.4 52 -8.7 56 -19.5 52.5C-30.3 49.1 -38.8 38.2 -45.6 26.4C-52.5 14.5 -57.7 1.7 -54.8 -8.8C-51.9 -19.3 -40.9 -27.4 -30.4 -33.5C-19.9 -39.5 -10 -43.3 1.6 -45.2C13.2 -47.1 26.3 -47.1 35.7 -40.9Z" fill="#00ccbc"></path></g><g transform="translate(135 473)"><path d="M40.6 -49C53.3 -37.7 64.9 -25.6 68 -11.5C71.2 2.7 65.9 18.8 57.9 34.3C50 49.8 39.5 64.6 24.9 71.1C10.4 77.5 -8.2 75.5 -21.5 67.2C-34.8 58.8 -42.9 44.1 -52.4 29.4C-61.9 14.7 -72.8 -0.1 -72.6 -14.9C-72.5 -29.7 -61.2 -44.6 -47.2 -55.7C-33.3 -66.8 -16.6 -74.1 -1.4 -72.4C13.9 -70.8 27.8 -60.3 40.6 -49Z" fill="#00ccbc"></path></g><g transform="translate(785 124)"><path d="M31.6 -38.6C41 -29.8 48.6 -19.9 49 -9.8C49.3 0.2 42.4 10.3 35.8 19.8C29.3 29.2 23.2 38 14.1 43.2C5.1 48.3 -6.8 49.9 -18.3 47C-29.7 44.2 -40.7 37 -48 26.6C-55.3 16.2 -59 2.6 -56.5 -9.7C-54 -22 -45.4 -32.9 -35 -41.5C-24.5 -50.1 -12.3 -56.5 -0.6 -55.8C11.1 -55.1 22.2 -47.4 31.6 -38.6Z" fill="#00ccbc"></path></g><g transform="translate(339 107)"><path d="M36.8 -44C44.6 -37.4 45.6 -22.8 45.7 -9.8C45.9 3.1 45.3 14.5 41.3 26.1C37.3 37.8 29.9 49.7 18.9 54.9C8 60.2 -6.4 58.7 -20.2 54.2C-33.9 49.7 -46.9 42.2 -53.7 30.8C-60.5 19.4 -61.1 4.3 -57.3 -8.8C-53.5 -21.9 -45.2 -33 -34.9 -39.1C-24.6 -45.3 -12.3 -46.6 1.1 -47.9C14.5 -49.2 29.1 -50.6 36.8 -44Z" fill="#00ccbc"></path></g><g transform="translate(361 371)"><path d="M29.1 -35.9C37.2 -27.7 43.2 -18.2 44.1 -8.4C45.1 1.3 41 11.3 36.4 22.7C31.8 34 26.7 46.6 18 50C9.3 53.5 -3 47.8 -14.8 42.6C-26.6 37.5 -37.8 32.9 -42.7 24.6C-47.6 16.2 -46.2 4.2 -43.9 -7.6C-41.7 -19.4 -38.7 -31 -31.2 -39.3C-23.8 -47.6 -11.9 -52.7 -0.7 -51.9C10.4 -51 20.9 -44.1 29.1 -35.9Z" fill="#00ccbc"></path></g></g></svg>