<svg id="visual" viewBox="0 0 900 600" width="900" height="600" xmlns="http://www.w3.org/2000/svg" xmlns:xlink="http://www.w3.org/1999/xlink" version="1.1"><rect x="0" y="0" width="900" height="600" fill="#00ccbc"></rect><defs><linearGradient id="grad1_0" x1="33.3%" y1="0%" x2="100%" y2="100%"><stop offset="20%" stop-color="#ffffff" stop-opacity="1"></stop><stop offset="80%" stop-color="#ffffff" stop-opacity="1"></stop></linearGradient></defs><defs><linearGradient id="grad1_1" x1="33.3%" y1="0%" x2="100%" y2="100%"><stop offset="20%" stop-color="#ffffff" stop-opacity="1"></stop><stop offset="80%" stop-color="#a5e7dd" stop-opacity="1"></stop></linearGradient></defs><defs><linearGradient id="grad1_2" x1="33.3%" y1="0%" x2="100%" y2="100%"><stop offset="20%" stop-color="#00ccbc" stop-opacity="1"></stop><stop offset="80%" stop-color="#a5e7dd" stop-opacity="1"></stop></linearGradient></defs><defs><linearGradient id="grad2_0" x1="0%" y1="0%" x2="66.7%" y2="100%"><stop offset="20%" stop-color="#ffffff" stop-opacity="1"></stop><stop offset="80%" stop-color="#ffffff" stop-opacity="1"></stop></linearGradient></defs><defs><linearGradient id="grad2_1" x1="0%" y1="0%" x2="66.7%" y2="100%"><stop offset="20%" stop-color="#a5e7dd" stop-opacity="1"></stop><stop offset="80%" stop-color="#ffffff" stop-opacity="1"></stop></linearGradient></defs><defs><linearGradient id="grad2_2" x1="0%" y1="0%" x2="66.7%" y2="100%"><stop offset="20%" stop-color="#a5e7dd" stop-opacity="1"></stop><stop offset="80%" stop-color="#00ccbc" stop-opacity="1"></stop></linearGradient></defs><g transform="translate(900, 0)"><path d="M0 486.7C-45.5 461.1 -91.1 435.5 -135.7 417.5C-180.3 399.6 -223.9 389.3 -269.2 370.5C-314.5 351.8 -361.3 324.5 -393.8 286.1C-426.3 247.7 -444.4 198.2 -457.5 148.6C-470.6 99.1 -478.7 49.5 -486.7 0L0 0Z" fill="#6fdacc"></path><path d="M0 324.5C-30.4 307.4 -60.7 290.3 -90.4 278.3C-120.2 266.4 -149.3 259.5 -179.5 247C-209.6 234.5 -240.9 216.3 -262.5 190.7C-284.2 165.1 -296.2 132.1 -305 99.1C-313.7 66.1 -319.1 33 -324.5 0L0 0Z" fill="#d3f3ee"></path><path d="M0 162.2C-15.2 153.7 -30.4 145.2 -45.2 139.2C-60.1 133.2 -74.6 129.8 -89.7 123.5C-104.8 117.3 -120.4 108.2 -131.3 95.4C-142.1 82.6 -148.1 66.1 -152.5 49.5C-156.9 33 -159.6 16.5 -162.2 0L0 0Z" fill="#ffffff"></path></g><g transform="translate(0, 600)"><path d="M0 -486.7C52 -484 103.9 -481.3 150.4 -462.9C196.9 -444.6 238 -410.5 272.1 -374.6C306.3 -338.6 333.6 -300.8 361.6 -262.7C389.7 -224.7 418.4 -186.6 439.4 -142.8C460.4 -99 473.6 -49.5 486.7 0L0 0Z" fill="#6fdacc"></path><path d="M0 -324.5C34.6 -322.7 69.3 -320.9 100.3 -308.6C131.3 -296.4 158.6 -273.7 181.4 -249.7C204.2 -225.7 222.4 -200.5 241.1 -175.2C259.8 -149.8 278.9 -124.4 292.9 -95.2C306.9 -66 315.7 -33 324.5 0L0 0Z" fill="#d3f3ee"></path><path d="M0 -162.2C17.3 -161.3 34.6 -160.4 50.1 -154.3C65.6 -148.2 79.3 -136.8 90.7 -124.9C102.1 -112.9 111.2 -100.3 120.5 -87.6C129.9 -74.9 139.5 -62.2 146.5 -47.6C153.5 -33 157.9 -16.5 162.2 0L0 0Z" fill="#ffffff"></path></g></svg>