<svg id="visual" viewBox="0 0 900 600" width="900" height="600" xmlns="http://www.w3.org/2000/svg" xmlns:xlink="http://www.w3.org/1999/xlink" version="1.1"><rect x="0" y="0" width="900" height="600" fill="#027F8A"></rect><path d="M0 368L21.5 346.5C43 325 86 282 128.8 299.2C171.7 316.3 214.3 393.7 257.2 427C300 460.3 343 449.7 385.8 411.5C428.7 373.3 471.3 307.7 514.2 276.3C557 245 600 248 642.8 262C685.7 276 728.3 301 771.2 330.7C814 360.3 857 394.7 878.5 411.8L900 429L900 601L878.5 601C857 601 814 601 771.2 601C728.3 601 685.7 601 642.8 601C600 601 557 601 514.2 601C471.3 601 428.7 601 385.8 601C343 601 300 601 257.2 601C214.3 601 171.7 601 128.8 601C86 601 43 601 21.5 601L0 601Z" fill="#00CCBC" stroke-linecap="round" stroke-linejoin="miter"></path></svg>