<svg id="visual" viewBox="0 0 900 600" width="900" height="600" xmlns="http://www.w3.org/2000/svg" xmlns:xlink="http://www.w3.org/1999/xlink" version="1.1"><rect x="0" y="0" width="900" height="600" fill="#fff"></rect><g transform="translate(473.2456927084466 322.5624794403516)"><path d="M92 -149.6C128.6 -119.7 173.9 -109.9 187.9 -84.3C201.9 -58.7 184.6 -17.3 182.9 29.6C181.3 76.5 195.3 128.9 174.5 148.9C153.6 168.9 98 156.4 52 163.9C6 171.4 -30.2 198.9 -61.8 196.2C-93.4 193.5 -120.4 160.6 -143 127.7C-165.6 94.8 -183.7 61.9 -204.7 19.9C-225.6 -22.2 -249.2 -73.4 -236 -110.1C-222.8 -146.7 -172.8 -168.9 -127.3 -194.6C-81.8 -220.3 -40.9 -249.7 -6.6 -239.4C27.8 -229.2 55.5 -179.4 92 -149.6" fill="#00ccbc"></path></g></svg>