<svg id="visual" viewBox="0 0 900 600" width="900" height="600" xmlns="http://www.w3.org/2000/svg" xmlns:xlink="http://www.w3.org/1999/xlink" version="1.1"><rect x="0" y="0" width="900" height="600" fill="#fff"></rect><g transform="translate(440.022706812062 296.52211449527283)"><path d="M88.6 -109.7C124.2 -96 169.1 -82.8 180.3 -56.6C191.5 -30.5 169 8.5 138.8 27.7C108.7 46.9 70.9 46.2 46.5 61.9C22 77.7 11 109.8 -12 126.4C-35.1 142.9 -70.1 143.9 -87.3 125.8C-104.4 107.7 -103.5 70.5 -120.2 35.3C-137 0 -171.2 -33.4 -161.6 -49.3C-152 -65.3 -98.6 -63.8 -64.4 -78C-30.2 -92.2 -15.1 -122.1 5.7 -129.9C26.5 -137.7 52.9 -123.5 88.6 -109.7" fill="#00ccbc"></path></g></svg>