<svg id="visual" viewBox="0 0 900 600" width="900" height="600" xmlns="http://www.w3.org/2000/svg" xmlns:xlink="http://www.w3.org/1999/xlink" version="1.1"><rect x="0" y="0" width="900" height="600" fill="#fff"></rect><g transform="translate(446.59199657319175 280.0746002727771)"><path d="M146.1 -203.2C182.1 -174.9 199 -122.5 218.4 -69.4C237.8 -16.3 259.6 37.6 252.1 88.4C244.5 139.2 207.5 186.9 160.6 221.7C113.6 256.4 56.8 278.2 5.8 270.2C-45.3 262.3 -90.5 224.6 -136.6 189.6C-182.8 154.6 -229.8 122.2 -242.8 79.5C-255.8 36.8 -234.9 -16.4 -211.7 -62.9C-188.5 -109.5 -163 -149.4 -127.4 -177.8C-91.7 -206.2 -45.8 -223.1 4.6 -229.4C55.1 -235.8 110.1 -231.6 146.1 -203.2" fill="#00ccbc"></path></g></svg>