<svg id="visual" viewBox="0 0 900 600" width="900" height="600" xmlns="http://www.w3.org/2000/svg" xmlns:xlink="http://www.w3.org/1999/xlink" version="1.1"><rect width="900" height="600" fill="#ffffff"></rect><g><g transform="translate(466 399)"><path d="M42.2 -46.8C55.6 -39 68.1 -26.6 70.8 -12.3C73.6 2 66.7 18.2 58.6 35.3C50.5 52.3 41.2 70.1 26.1 78.7C10.9 87.3 -10.2 86.6 -28 79.1C-45.9 71.7 -60.5 57.5 -65.8 41.4C-71.1 25.2 -67.2 7 -64.3 -11.7C-61.5 -30.5 -59.8 -49.8 -49.2 -58.2C-38.7 -66.6 -19.4 -63.9 -2.5 -61C14.4 -58 28.7 -54.7 42.2 -46.8Z" fill="#00ccbc"></path></g><g transform="translate(419 123)"><path d="M32.2 -37.7C42.4 -29.8 51.7 -20.3 54.9 -8.8C58 2.8 54.9 16.3 49 30C43.2 43.8 34.6 57.7 21.8 64.3C8.9 70.9 -8.2 70.2 -24.1 65C-40 59.7 -54.7 49.9 -62.4 36.2C-70.1 22.5 -70.8 4.9 -65.1 -8.7C-59.3 -22.3 -47.2 -32 -35.2 -39.6C-23.3 -47.2 -11.7 -52.8 -0.3 -52.4C11 -52 22 -45.7 32.2 -37.7Z" fill="#00ccbc"></path></g><g transform="translate(200 311)"><path d="M26.8 -33.9C33.5 -26.4 36.7 -16.7 38 -7C39.3 2.7 38.7 12.3 34.4 19.9C30.1 27.4 22 32.8 12.9 36.6C3.8 40.4 -6.2 42.6 -15.7 40.4C-25.2 38.1 -34.2 31.5 -37.7 23C-41.1 14.4 -39.1 3.9 -35.5 -4.5C-31.9 -12.9 -26.7 -19.3 -20.5 -26.8C-14.3 -34.4 -7.2 -43.2 1.5 -44.9C10.1 -46.7 20.2 -41.4 26.8 -33.9Z" fill="#00ccbc"></path></g><g transform="translate(731 498)"><path d="M38 -47.6C47.1 -37.7 50.8 -23.7 54 -9C57.2 5.6 59.9 20.9 54.2 31.8C48.5 42.8 34.5 49.4 19.8 55.1C5.1 60.8 -10.2 65.5 -24.5 62.4C-38.7 59.3 -51.7 48.4 -55.9 35.2C-60 22 -55.1 6.6 -50 -6.4C-44.8 -19.4 -39.4 -29.9 -31 -39.9C-22.6 -50 -11.3 -59.5 1.6 -61.4C14.5 -63.3 29 -57.5 38 -47.6Z" fill="#00ccbc"></path></g><g transform="translate(632 117)"><path d="M40.9 -48.8C49.2 -41.8 49.6 -25.3 50.8 -10.2C52 5 54.2 18.8 49.4 29.8C44.5 40.8 32.7 49.1 20 52.9C7.2 56.8 -6.5 56.1 -17.2 50.7C-27.9 45.3 -35.7 35.2 -43.9 23.9C-52.1 12.6 -60.9 0.2 -60.2 -11.8C-59.6 -23.8 -49.5 -35.4 -37.9 -41.8C-26.3 -48.3 -13.1 -49.6 1.6 -51.5C16.3 -53.4 32.6 -55.8 40.9 -48.8Z" fill="#00ccbc"></path></g><g transform="translate(108 493)"><path d="M41.1 -52.2C52.7 -39.3 61.2 -25.8 64.3 -10.9C67.5 4 65.4 20.3 57.9 33.5C50.3 46.6 37.3 56.8 23.4 59.9C9.5 63.1 -5.4 59.4 -21 54.9C-36.7 50.5 -53.2 45.3 -59.6 34.3C-66.1 23.3 -62.6 6.4 -57.3 -7.7C-51.9 -21.9 -44.7 -33.3 -34.9 -46.6C-25 -59.8 -12.5 -74.9 1.1 -76.3C14.8 -77.6 29.5 -65.2 41.1 -52.2Z" fill="#00ccbc"></path></g><g transform="translate(145 120)"><path d="M28.8 -35.1C37.5 -27 45 -18.1 47 -8.1C49.1 2 45.8 13.2 39.6 21.9C33.5 30.6 24.6 36.8 15.1 39.4C5.6 42 -4.5 41 -15.2 38.5C-25.9 36.1 -37.2 32 -44.4 23.7C-51.6 15.3 -54.6 2.6 -51.4 -8C-48.3 -18.5 -38.9 -26.8 -29.3 -34.8C-19.7 -42.8 -9.8 -50.4 0.1 -50.5C10 -50.6 20 -43.2 28.8 -35.1Z" fill="#00ccbc"></path></g><g transform="translate(786 260)"><path d="M38.2 -45.7C48.1 -37.2 53.7 -23.8 56.1 -9.9C58.6 4 57.8 18.5 51.7 30.5C45.5 42.5 33.9 52 19.8 59.3C5.6 66.6 -11.2 71.8 -23.8 66.7C-36.3 61.5 -44.6 46 -51.2 31.2C-57.8 16.4 -62.6 2.3 -62.6 -13.4C-62.6 -29 -57.8 -46.1 -46.6 -54.3C-35.3 -62.6 -17.7 -62 -1.8 -59.9C14.2 -57.8 28.3 -54.2 38.2 -45.7Z" fill="#00ccbc"></path></g></g></svg>