<svg id="visual" viewBox="0 0 900 600" width="900" height="600" xmlns="http://www.w3.org/2000/svg" xmlns:xlink="http://www.w3.org/1999/xlink" version="1.1"><rect x="0" y="0" width="900" height="600" fill="#ffffff"></rect><g transform="translate(454.6260465190503 288.6977117295205)"><path d="M118.1 -149.9C165.6 -128 225.5 -110.3 234.9 -77.3C244.4 -44.2 203.5 4.3 170.7 40C137.8 75.7 113 98.5 85.9 135.4C58.8 172.2 29.4 223.1 -10.8 238C-50.9 252.8 -101.9 231.6 -137.1 197.3C-172.3 163.1 -191.7 115.8 -211.6 66.1C-231.4 16.3 -251.7 -36.1 -243.8 -85C-235.8 -133.9 -199.6 -179.4 -154.3 -202C-108.9 -224.6 -54.5 -224.3 -9.6 -211.1C35.3 -197.9 70.5 -171.7 118.1 -149.9" fill="#00ccbc"></path></g></svg>