<svg id="visual" viewBox="0 0 900 600" width="900" height="600" xmlns="http://www.w3.org/2000/svg" xmlns:xlink="http://www.w3.org/1999/xlink" version="1.1"><rect width="900" height="600" fill="#ffffff"></rect><g><g transform="translate(599 339)"><path d="M44.7 -55.5C55.7 -44.1 60.7 -27.8 63.3 -11.4C65.8 5 66 21.6 58.6 33.4C51.3 45.2 36.4 52.3 22.2 54.7C8 57.2 -5.6 55 -21.5 52.2C-37.4 49.4 -55.5 45.9 -64.3 35C-73 24.1 -72.4 5.7 -69.2 -12.1C-65.9 -29.9 -60 -47.1 -48 -58.4C-36 -69.6 -18 -74.8 -0.6 -74.1C16.9 -73.4 33.8 -66.9 44.7 -55.5Z" fill="#00ccbc"></path></g><g transform="translate(191 502)"><path d="M33.5 -39C43.1 -31.9 50.3 -21 53.4 -8.6C56.6 3.9 55.8 17.8 49.2 27.4C42.5 37 29.8 42.1 18.3 43.3C6.8 44.4 -3.6 41.5 -15.6 38.9C-27.6 36.3 -41.1 33.9 -47.9 25.9C-54.7 17.8 -54.7 4.1 -51.5 -8.2C-48.3 -20.5 -41.8 -31.3 -32.7 -38.5C-23.6 -45.6 -11.8 -49.1 0.1 -49.2C12 -49.3 24 -46.1 33.5 -39Z" fill="#00ccbc"></path></g><g transform="translate(257 203)"><path d="M28.6 -34C36.5 -27.5 41.8 -17.9 43 -8C44.2 1.8 41.3 12 35.7 19.7C30.2 27.5 22 32.8 13.5 35C5 37.1 -3.9 36.1 -13.5 34C-23.2 31.8 -33.6 28.6 -39.1 21.4C-44.7 14.2 -45.4 3 -43.9 -8.1C-42.3 -19.1 -38.4 -30.1 -30.7 -36.7C-23 -43.3 -11.5 -45.5 -0.6 -44.8C10.4 -44.1 20.7 -40.6 28.6 -34Z" fill="#00ccbc"></path></g><g transform="translate(725 513)"><path d="M27.5 -32.1C34.7 -26.7 39 -17.2 40.7 -7.3C42.3 2.6 41.2 12.9 35.8 19.2C30.4 25.5 20.7 27.8 11.9 29.7C3.1 31.7 -4.8 33.2 -12 31.3C-19.2 29.4 -25.8 24.1 -28.7 17.4C-31.6 10.7 -30.7 2.7 -30.1 -6C-29.4 -14.8 -28.9 -24.4 -24 -30.2C-19 -35.9 -9.5 -38 0.3 -38.4C10.1 -38.7 20.3 -37.5 27.5 -32.1Z" fill="#00ccbc"></path></g><g transform="translate(415 420)"><path d="M44 -52.7C55.9 -42.5 63.6 -27.5 64.1 -13.1C64.5 1.4 57.7 15.4 48.8 25.6C39.8 35.8 28.8 42.2 16.6 47.3C4.5 52.3 -8.6 56.1 -18.7 52.1C-28.7 48.1 -35.6 36.3 -44.6 24.1C-53.5 11.9 -64.6 -0.7 -63.2 -11.6C-61.8 -22.4 -47.9 -31.5 -35.3 -41.5C-22.7 -51.5 -11.3 -62.5 2.4 -65.3C16.1 -68.1 32.2 -62.8 44 -52.7Z" fill="#00ccbc"></path></g><g transform="translate(576 167)"><path d="M21.1 -24C27.7 -19.5 33.8 -13.3 37.3 -4.9C40.8 3.5 41.8 14.1 37.6 22.1C33.4 30 24.1 35.4 14.3 38.8C4.4 42.2 -6 43.7 -14.8 40.6C-23.6 37.4 -30.7 29.6 -35.1 20.8C-39.5 12 -41.2 2.2 -39 -6.3C-36.8 -14.8 -30.7 -22.1 -23.6 -26.5C-16.4 -30.9 -8.2 -32.5 -0.5 -31.9C7.2 -31.3 14.4 -28.5 21.1 -24Z" fill="#00ccbc"></path></g><g transform="translate(766 258)"><path d="M32 -37.4C40.2 -31.2 44.9 -20 45.3 -9.3C45.6 1.4 41.5 11.5 36 20.6C30.5 29.6 23.6 37.6 14.9 40.8C6.2 43.9 -4.2 42.1 -15 39.1C-25.8 36.1 -36.9 31.9 -43.6 23.6C-50.3 15.3 -52.5 2.8 -48.6 -6.8C-44.8 -16.3 -34.8 -23 -25.7 -29.1C-16.6 -35.2 -8.3 -40.7 1.8 -42.8C11.8 -45 23.7 -43.7 32 -37.4Z" fill="#00ccbc"></path></g><g transform="translate(92 124)"><path d="M25.1 -30C33.1 -23.2 40.5 -15.8 40.9 -8C41.3 -0.2 34.7 8 29.2 16.1C23.6 24.2 19.1 32.1 12.1 35.7C5.2 39.3 -4.3 38.4 -13.8 35.9C-23.4 33.3 -33 29 -36.1 21.8C-39.3 14.5 -35.8 4.4 -32.7 -4.5C-29.6 -13.4 -26.8 -21 -21.4 -28.2C-16 -35.4 -8 -42.2 0.3 -42.6C8.6 -42.9 17.1 -36.7 25.1 -30Z" fill="#00ccbc"></path></g><g transform="translate(90 315)"><path d="M34.7 -40.4C45.6 -32.3 55.2 -21.9 58.5 -9.4C61.8 3.1 58.7 17.6 52.3 31.6C45.9 45.7 36.2 59.2 23.2 64C10.3 68.7 -5.9 64.7 -19.8 58C-33.7 51.4 -45.3 42.1 -54 29.8C-62.7 17.5 -68.4 2.2 -67.4 -13.3C-66.3 -28.8 -58.4 -44.4 -46 -52.2C-33.6 -60 -16.8 -59.8 -2.4 -56.9C12 -54.1 23.9 -48.4 34.7 -40.4Z" fill="#00ccbc"></path></g><g transform="translate(416 93)"><path d="M36.4 -46.2C45.8 -35.4 51.2 -22.7 54.7 -8.8C58.2 5.2 59.9 20.4 54.4 32.8C48.9 45.3 36.3 55.1 21.9 60.4C7.6 65.7 -8.5 66.5 -21.2 60.8C-34 55.1 -43.5 42.8 -51.6 29.4C-59.8 16.1 -66.7 1.5 -65.8 -13C-64.9 -27.6 -56.4 -42.3 -44.1 -52.5C-31.8 -62.8 -15.9 -68.7 -1.2 -67.2C13.5 -65.7 26.9 -56.9 36.4 -46.2Z" fill="#00ccbc"></path></g></g></svg>